<svg width="1510" height="200" viewBox="0 0 1510 200" fill="none" xmlns="http://www.w3.org/2000/svg">
<g opacity="0.5" clip-path="url(#clip0_317_728)">
<g opacity="0.3">
<path d="M2012.91 1545.13L2013.81 1544.55C1949.1 1398.32 1882.49 1275.69 1815.81 1180C1741.4 1073.19 1663.69 995.26 1584.88 948.38C1510.68 904.26 1436.27 880.65 1357.26 876.18C1286.95 872.18 1220.05 883.29 1152.04 896.01C1121.94 901.63 1091.13 907.82 1061.43 913.66C1026.53 920.66 990.319 927.87 954.319 934.4C941.419 936.81 928.819 939.1 916.319 941.4C640.199 992.4 457.779 1026.1 286.859 843.76C219.249 771.56 154.439 679.08 94.3386 568.94C65.2386 515.54 40.4287 458.81 16.4287 404.03C-23.5013 312.79 -58.0015 234 -101.411 194L-102.011 194.92C-58.7114 234.8 -24.3015 313.53 15.4985 404.64C39.4985 459.54 64.3087 516.15 93.4087 569.64C153.509 680 218.319 772.49 286.129 844.8C457.349 1027.48 639.969 993.8 916.389 942.67C928.899 940.38 941.499 938.09 954.389 935.67C990.489 929.03 1026.6 921.81 1061.6 914.93C1091.3 908.93 1122.01 902.93 1152.21 897.28C1300.52 869.55 1426.54 855.79 1584.35 949.54C1735 1038.92 1875.09 1233.75 2012.91 1545.13Z" fill="white"/>
<path d="M2008.91 1544.21L2009.81 1543.64C1944.3 1397.97 1876.81 1275.46 1809.29 1179.31C1734.98 1073.65 1657.77 995.83 1579.66 947.93C1505.36 902.43 1430.95 876.87 1351.94 870C1278.43 863.58 1207.42 874 1146.62 884.32C1099.01 892.32 1050.62 901.97 1003.7 911.25C985.699 914.81 967.099 918.47 948.699 922.03C918.989 927.76 890.388 933.6 862.698 939.22C615.469 989.3 436.849 1025.51 275.139 855.56C207.729 784.62 142.519 688.01 86.7185 575.92C54.1085 510.48 27.9086 440.46 2.50854 372.73C-28.6914 289.41 -58.2014 210.73 -92.6013 164.15L-93.4014 164.95C-59.0015 211.25 -29.5913 289.95 1.59863 373.19C26.9987 440.92 53.1986 510.94 85.8086 576.5C142.509 690.18 205.919 784.39 274.429 856.36C313.929 897.84 354.739 927.99 399.429 948.5C440.539 967.41 484.938 978.07 535.239 981.28C630.649 987.35 738.169 965.46 862.679 940.28C890.379 934.66 919.079 928.82 948.679 923.09C967.079 919.53 985.679 915.87 1003.68 912.31C1050.49 903.03 1098.99 893.52 1146.6 885.38C1282.51 862.38 1417.83 849.97 1579.04 948.87C1729.68 1041.33 1870.29 1236 2008.91 1544.21Z" fill="white"/>
<path d="M2004.81 1543.41L2005.71 1542.83C1939.4 1397.75 1871.09 1275.23 1802.59 1178.62C1728.59 1074.22 1651.77 996.4 1574.36 947.47C1409.36 843.06 1269.83 853.26 1141.12 872.75C1075.31 882.75 1008.6 896.24 944.199 909.42L943.099 909.65C899.889 918.47 858.989 927.76 819.379 936.58C586.259 989.18 417.739 1027.23 263.329 867.24C195.419 796.88 131.609 698.55 78.9091 582.91C42.6991 503.61 14.499 414.1 -10.301 335.26C-34.7111 257.78 -57.811 184.67 -84.1111 134.58L-85.011 135.16C-58.811 185.16 -35.7111 258.24 -11.301 335.6C13.599 414.6 41.7991 503.95 78.009 583.37C130.809 699.12 194.619 797.57 262.629 868.05C417.439 1028.49 586.059 990.33 819.579 937.61C859.189 928.67 900.089 919.39 943.299 910.68L944.399 910.45C1008.8 897.27 1075.4 883.75 1141.22 873.78C1269.73 854.41 1409.05 844.21 1573.86 948.38C1724.58 1043.73 1865.49 1238.33 2004.81 1543.41Z" fill="white"/>
<path d="M2000.81 1542.61L2001.71 1542.03C1934.71 1397.52 1865.49 1275.12 1796.09 1177.94C1722.28 1074.79 1645.97 997.091 1569.16 946.941C1400.54 836.941 1257.03 844.941 1135.72 860.941C1067.21 870.001 999.999 883.641 937.599 897.001C883.289 908.691 832.599 921.411 783.599 933.791C561.079 989.951 400.359 1030.52 251.649 878.791C183.439 809.111 121.129 709.181 71.329 589.791C31.619 494.441 3.41907 385.911 -21.481 290.101C-39.481 220.651 -56.5911 155.101 -75.3911 104.791L-76.291 105.251C-57.491 155.561 -40.491 221.111 -22.481 290.451C2.41907 386.261 30.619 494.781 70.4291 590.251C120.229 709.901 182.639 809.951 250.939 879.621C319.549 949.621 395.859 983.231 491.069 985.061C578.179 986.781 673.489 962.711 783.699 934.981C832.699 922.601 883.409 909.881 937.619 898.191C1000.02 884.781 1067.13 871.141 1135.62 862.091C1256.73 846.001 1400.14 838.001 1568.46 947.811C1717.38 1045 1862.89 1245.1 2000.81 1542.61Z" fill="white"/>
<path d="M1996.81 1541.69L1997.71 1541.12C1930 1397.29 1859.89 1274.78 1789.49 1177.12C1715.98 1075.23 1640.07 997.651 1563.86 946.301C1399.95 836.061 1258.53 834.451 1130.22 849.241C1072.11 855.901 1011 866.791 931.999 884.551C868.489 898.881 809.779 915.381 752.999 931.311C546.779 989.311 383.759 1035.14 239.939 890.401C171.539 821.641 110.629 720.101 63.729 596.551C20.319 482.411 -6.78101 351.301 -30.781 235.671C-42.891 176.991 -54.3909 121.671 -66.6909 74.8809L-67.6909 75.2209C-55.3909 121.871 -43.891 177.221 -31.781 235.901C-7.78101 351.651 19.319 482.751 62.729 597.011C109.729 720.671 170.729 822.321 239.239 891.201C305.649 958.011 379.559 988.731 472.069 988.201C556.379 987.631 647.589 962.081 753.199 932.281C809.899 916.351 868.609 899.851 932.119 885.521C1011.02 867.761 1072.23 856.871 1130.24 850.221C1258.45 835.551 1399.56 837.041 1563.24 947.221C1712.58 1047.75 1858.39 1247.73 1996.81 1541.69Z" fill="white"/>
<path d="M1992.71 1540.89L1993.61 1540.31C1854.89 1249.79 1708.48 1049.81 1558.46 945.869C1390.84 829.659 1245 825.999 1124.52 837.569C1064.71 843.299 1001.7 854.299 926.099 872.179C854.789 889.019 789.379 909.419 726.099 929.179C525.969 991.639 367.859 1041.04 227.839 902.249C158.439 833.489 100.529 732.979 55.6294 603.709C8.41943 467.709 -16.2805 309.519 -38.0806 169.939C-44.9906 125.469 -51.5906 83.5194 -58.3906 45.3594L-59.3906 45.5894C-52.5906 83.7494 -45.9906 125.699 -39.0806 170.049C-17.2805 309.639 7.51941 467.789 54.7294 604.049C99.6294 733.559 157.639 834.179 227.139 903.049C367.559 1042.18 525.869 992.789 726.299 930.219C789.499 910.499 854.909 890.099 926.219 873.219C1001.72 855.449 1064.73 844.449 1124.44 838.719C1244.73 826.999 1390.34 830.799 1557.76 946.779C1707.88 1050.73 1854.09 1250.6 1992.71 1540.89Z" fill="white"/>
<path d="M1988.71 1540L1989.61 1539.42C1850.79 1252.92 1704.08 1052.93 1553.26 945.319C1478.65 892.029 1404.04 857.189 1325.26 838.739C1261.65 823.839 1196.14 819.739 1119.13 825.739C1058.53 830.549 993.619 841.549 920.609 859.549C842.709 878.679 771.609 903.209 702.889 926.819C507.569 993.979 353.349 1047.04 216.239 913.749C146.729 845.679 90.1294 743.679 48.1194 610.509C-3.08057 448.119 -24.4806 248.939 -41.6906 88.8394C-44.3905 63.2794 -46.9906 39.0994 -49.6906 15.6094L-50.6906 15.7194C-48.0906 39.2094 -45.4906 63.3894 -42.6906 88.9494C-25.4806 249.169 -4.08057 448.459 47.1194 610.859C89.2294 744.139 145.829 846.369 215.539 914.559C278.629 975.999 349.329 1002 437.999 996.399C518.409 991.399 603.999 961.909 702.999 927.869C771.809 904.259 842.919 879.739 920.719 860.599C993.629 842.599 1058.54 831.599 1119.04 826.789C1230.76 817.969 1381.04 823.579 1552.59 946.089C1703.38 1053.93 1850 1253.57 1988.71 1540Z" fill="white"/>
<path d="M1984.71 1539.17L1985.61 1538.59C1847 1256.21 1699.78 1056.46 1548.06 944.83C1473.45 889.94 1398.84 853.15 1320.06 832.52C1255.85 815.67 1188.34 809.72 1113.74 814.18C1051.93 817.97 987.019 828.74 915.109 847.18C831.509 868.61 755.299 897.38 681.689 925.11C490.169 997.31 338.949 1054.27 204.539 925.45C135.129 858.53 79.9294 754.92 40.5394 617.52C-15.1605 423.03 -29.4606 181.52 -40.8706 -12.5797L-40.9706 -14.1797L-41.9706 -14.0697L-41.8706 -12.4597C-30.4606 181.68 -16.2606 423.26 39.5394 617.86C79.0494 755.5 134.249 859.33 203.859 926.37C265.669 985.62 335.169 1009.46 422.479 1001.44C501.479 994.1 589.099 961.1 681.909 926.14C755.519 898.41 831.729 869.76 915.229 848.21C986.999 829.77 1051.91 819 1113.61 815.22C1215.33 809.03 1370.84 815.9 1547.36 945.64C1699 1057.26 1846.09 1256.9 1984.71 1539.17Z" fill="white"/>
<path d="M1980.61 1538.25L1981.51 1537.68C1843.19 1259.68 1695.58 1060.01 1542.66 944.261C1467.95 887.761 1393.45 849.031 1314.66 826.111C1249.15 807.111 1181.54 799.291 1108.14 802.381C1045.43 805.021 980.42 815.561 909.42 834.591C820.81 858.311 740.2 891.321 662.19 923.401C473.67 1000.76 324.76 1061.85 192.74 937.041C123.43 871.261 69.5298 766.041 32.7397 624.291C-19.0603 424.761 -29.2603 174.471 -32.4602 -43.959H-33.4602C-30.2603 174.581 -20.0603 425.041 31.7397 624.631C68.6498 766.631 122.55 872.061 192.06 937.961C252.87 995.381 321.27 1017.15 407.58 1006.61C485.49 997.091 571.5 961.801 662.51 924.441C740.51 892.441 821.13 859.341 909.64 835.731C980.64 816.731 1045.55 806.161 1108.16 803.531C1267.67 796.771 1405.59 841.691 1542.1 945.181C1694.88 1060.93 1842.49 1260.45 1980.61 1538.25Z" fill="white"/>
<path d="M1976.61 1537.45L1977.51 1536.88C1839.79 1263.66 1691.78 1064.14 1537.46 943.801C1400.55 837.001 1258.33 787.001 1102.72 790.801C1039.72 792.411 974.6 802.611 903.79 822.211C811.08 848.111 726.58 885.581 644.87 921.911C465.75 1001.45 311.13 1070.09 180.82 948.841C111.61 884.321 59.2098 777.511 24.8998 631.391C-28.2002 405.051 -28.4003 120.601 -24.0002 -73.5391H-25.0002C-29.4003 120.831 -29.2002 405.281 23.8998 631.741C58.2098 778.081 110.81 885.121 180.12 949.741C240.02 1005.55 307.83 1025.38 393.34 1012.31C470.45 1000.51 555.26 962.811 645.17 923.041C726.88 886.821 811.28 849.351 903.89 823.451C974.6 803.851 1039.61 793.651 1102.52 792.051C1257.93 788.151 1399.95 838.121 1536.66 944.811C1691.08 1064.94 1839 1264.35 1976.61 1537.45Z" fill="white"/>
<path d="M1972.61 1536.65L1973.51 1536.07C1898.4 1389.07 1819.39 1261.6 1738.51 1157.42C1664.9 1062.65 1588 984.72 1509.79 925.69C1439.95 873 1367.24 834.13 1293.84 810C1230.45 789.101 1164.07 778.687 1097.32 779.17C921.8 780.31 765.58 854.92 627.67 920.82C539.06 963.11 455.45 1003.1 379.24 1016.97C294.73 1032.44 228.02 1014.45 169.12 960.47C82.6097 881.16 24.5997 731.47 -3.30029 515.69C-24.7003 350.2 -28.8003 141.97 -15.4003 -103.4L-16.4003 -103.51C-29.8003 141.86 -25.7003 350.2 -4.30029 515.81C8.89966 618 28.9998 706.11 55.4098 778C84.8098 857.88 122.81 919.54 168.41 961.37C227.51 1015.57 294.52 1033.57 379.33 1018.09C455.64 1004.09 539.33 964.09 627.96 921.83C765.68 856 921.9 781.41 1097.22 780.26C1420.85 778.09 1715.28 1032.51 1972.61 1536.65Z" fill="white"/>
<path d="M-247.83 -614.58L-248.83 -614.09C-116.61 -219.68 46.1001 -3.63013 234.72 27.9999C375.64 51.6399 469.95 -37.0001 569.66 -130.71C659.77 -215.44 753 -303 887.39 -313C1110.51 -329.65 1243 -115.41 1371.34 91.7899C1433.45 192.18 1497.75 296.09 1570.66 369.2C1609.87 408.6 1648.57 436.37 1688.97 454.2C1734.18 474.2 1780.38 481.2 1830.19 475.78C1905.5 467.53 1983.9 429.58 2063.11 363C2164.52 277.9 2270.54 143.44 2378.25 -36.6101L2377.35 -37.3301C2185.43 283.6 2001.35 455.89 1830.19 474.67C1623.67 497.34 1501.55 299.96 1372.19 91.0599C1308.29 -12.2401 1242.19 -118.94 1165.19 -196.29C1123.69 -238 1082.48 -267.83 1039.28 -287.47C990.77 -309.54 941.07 -318.39 887.36 -314.39C752.55 -304.32 659.24 -216.54 569.03 -131.79C469.42 -38.1901 375.41 50.2099 234.89 26.6699C46.7002 -4.84009 -115.71 -220.65 -247.83 -614.58Z" fill="white"/>
<path d="M-243.431 -614.09L-244.431 -613.61C-185.921 -443.74 -124.511 -311.1 -56.9109 -208.16C33.3992 -70.6699 133.409 8.74011 240.419 28.0001C382.419 54.1901 478.149 -32.2598 579.359 -123.8C614.159 -155.2 650.069 -187.69 688.359 -215.7C758.999 -267 824.479 -293.52 894.489 -299.46C1121.82 -319.1 1257.49 -109.71 1388.74 92.7601C1433.25 161.39 1479.25 232.44 1527.86 292.7C1575.46 351.86 1621.17 394.42 1667.47 422.79C1721.78 456.13 1777.58 470.56 1838.09 467.05C1913.6 462.68 1988.09 431.16 2065.81 370.41C2164.42 293.41 2267.23 168.18 2371.45 -1.67981L2370.55 -2.52985C2183.33 302.76 2009.11 456 1838 465.83C1726.09 472.26 1630.68 418.55 1528.67 291.83C1480 231.59 1434 160.66 1389.64 92.0001C1324.14 -9.0799 1256.43 -113.59 1177.72 -188.52C1135.32 -228.9 1093.31 -257.75 1049.31 -276.42C999.899 -297.52 949.199 -305.42 894.489 -300.67C824.279 -294.73 758.679 -268.06 687.869 -216.77C649.569 -188.64 613.559 -156.15 578.759 -124.77C477.649 -33.4698 382.239 52.8602 240.619 26.7902C133.909 7.65015 34.0994 -71.6398 -56.0007 -208.89C-123.611 -311.83 -184.921 -444.35 -243.431 -614.09Z" fill="white"/>
<path d="M-238.919 -613.609L-239.919 -613.119C-179.819 -443.499 -117.609 -311.219 -49.5991 -208.649C40.7009 -72.3694 140.221 7.17065 246.231 27.9006C389.041 55.9006 485.751 -27.7494 588.161 -116.379C622.371 -145.999 657.771 -176.639 695.371 -203.189C766.181 -253.269 831.691 -279.579 901.691 -286.129C1133.82 -308.919 1272.83 -103.999 1407.25 94.2206C1449.65 156.781 1493.56 221.401 1539.66 277.901C1587.17 336.461 1632.47 379.001 1678.18 408.121C1731.78 442.191 1786.59 458.561 1845.69 458.441C2014.81 458.001 2184.53 318.891 2364.55 33.3506L2363.65 32.5106C2183.93 317.671 2014.41 456.621 1845.65 457.101C1736.04 457.471 1641.83 401.941 1540.22 277.301C1494.12 220.921 1450.31 156.301 1407.81 93.7306C1340.54 -5.3194 1271 -107.899 1190.62 -180.759C1147.32 -220.049 1104.42 -247.689 1059.41 -265.509C1008.91 -285.509 957.201 -292.509 901.291 -287.089C831.191 -280.549 765.481 -254.089 694.571 -204.039C656.971 -177.489 621.571 -146.809 587.261 -117.229C485.051 -28.8394 388.541 54.6906 246.131 26.7706C140.421 6.03064 41.1306 -73.3794 -48.9993 -209.299C-116.709 -311.829 -178.919 -443.999 -238.919 -613.609Z" fill="white"/>
<path d="M-234.52 -613L-235.52 -612.52C-173.92 -442.89 -110.71 -310.86 -42.3999 -208.77C47.9102 -73.71 147 6 251.93 28C395.74 58.31 493.85 -22.92 597.66 -109C631.17 -136.76 665.66 -165.38 702.17 -190.35C773.08 -238.85 838.69 -264.92 908.7 -272.35C1146.42 -297.52 1289.14 -96.86 1427.15 97.25C1467 153.39 1508.36 211.34 1551.36 263.48C1598.77 321.07 1643.87 363.48 1689.08 393.33C1741.88 428.13 1795.69 446.55 1853.49 449.59C1927.49 453.47 1998.61 432.49 2070.82 385.33C2164 324.46 2260.64 217.77 2357.75 68.15L2356.85 67.3C2184.63 332.58 2020 457.22 1853.59 448.25C1746.28 442.55 1653.37 385.25 1552.16 262.51C1509.16 210.51 1467.85 152.51 1427.95 96.4C1358.74 -1 1287.14 -101.59 1204.73 -172.4C1160.32 -210.59 1116.42 -237.4 1070.41 -254.4C1018.81 -273.4 965.8 -279.74 908.6 -273.68C838.39 -266.28 772.68 -240.09 701.67 -191.47C665.17 -166.47 630.57 -137.76 597.06 -110C493.45 -24.16 395.64 56.84 252.13 26.77C66.9099 -12.11 -92.3101 -221.5 -234.52 -613Z" fill="white"/>
<path d="M-230.119 -612.51L-231.119 -611.9C-167.999 -442.41 -103.909 -310.61 -35.1992 -208.77C7.50073 -145.48 52.3108 -93.8298 98.1108 -55.2698C149.221 -12.2698 202.821 15.9003 257.731 28.2603C402.731 60.8802 502.251 -17.9297 607.461 -101.35C640.071 -127.17 673.771 -153.84 709.071 -177.24C780.281 -224.41 845.991 -250.24 915.801 -258.36C1159.82 -286.85 1300 -98.3098 1448.65 101.25C1485.55 150.84 1523.65 202.01 1563.16 249.17C1610.47 305.91 1655.27 348.35 1700.08 378.9C1752.18 414.43 1804.89 434.8 1861.39 441.1C1934.8 449.35 2004.21 433.58 2073.62 393.1C2163.93 340.1 2257.33 242.63 2351.05 103.2L2350.24 102.36C2130.82 429 1966.1 451.29 1861.39 439.53C1756.48 427.76 1664.67 368.72 1564 247.84C1524.5 200.67 1486.4 149.51 1449.49 99.9202C1378.08 3.92023 1304.28 -95.2798 1219.67 -164.39C1174.16 -201.49 1129.06 -227.39 1081.85 -243.57C1028.95 -261.63 974.641 -267.09 915.851 -260.18C845.941 -252.05 780.131 -226.18 708.721 -178.94C673.321 -155.54 639.621 -128.75 607.011 -102.94C501.901 -19.6498 402.691 59.0602 258.081 26.5502C74.3108 -14.4098 -85.3093 -223.56 -230.119 -612.51Z" fill="white"/>
<path d="M-225.729 -612L-226.729 -611.39C-162.119 -442 -97.1094 -310.5 -27.9993 -209C14.8008 -146.21 59.6006 -94.8 105.111 -56.25C155.811 -13.33 209.111 15.04 263.331 28.14C409.641 63.14 510.551 -13.21 617.331 -94.2C648.941 -118.2 681.641 -142.94 715.841 -164.76C787.581 -210.71 853.291 -236.17 922.791 -245C1174.12 -277 1318.84 -91 1471.95 105.86C1505.15 148.53 1539.46 192.67 1574.86 234.25C1622.07 290.15 1666.57 332.58 1710.86 363.99C1762.18 400.36 1814 422.67 1869 432.13C1942.81 444.86 2008.62 434.67 2076.22 400.36C2165.13 355.14 2252.74 269.29 2344.22 138.23L2343.42 137.38C2134.12 437.58 1972.5 448.73 1869.19 430.91C1766.58 413.21 1676.07 352.35 1575.66 233.4C1540.36 191.82 1506 147.69 1472.85 105C1395.54 5.58002 1322.54 -88.27 1235.43 -155.8C1188.62 -192 1142.22 -217.14 1093.61 -232.42C1039.21 -249.51 983.301 -254.12 922.691 -246.36C853.091 -237.51 787.181 -211.93 715.371 -165.97C681.171 -144.03 648.471 -119.29 616.761 -95.29C510.151 -14.54 409.341 61.71 263.531 26.8C81.7107 -16.72 -78.3093 -225.75 -225.729 -612Z" fill="white"/>
<path d="M-221.319 -611.551L-222.319 -610.941C-156.319 -441.801 -90.4092 -310.381 -20.7991 -209.261C22.1008 -146.941 66.811 -95.7708 112.201 -57.1008C162.611 -14.1808 215.411 14.4392 269.121 28.0192C416.831 65.4792 519.241 -8.48077 627.761 -86.8008C658.361 -108.871 689.961 -131.801 722.871 -152.031C795.001 -196.651 860.791 -221.871 930.001 -231.451C1190.72 -267.451 1340.74 -82.1907 1499.56 114.099C1527.76 148.899 1557 184.999 1586.67 219.699C1634 274.749 1678.18 317.179 1722 349.429C1772.7 386.659 1823.31 410.909 1876.82 423.519C1987.63 449.579 2140.14 444.609 2337.46 173.269L2336.66 172.419C2139.62 443.159 1987.41 447.999 1876.9 422.059C1777.29 398.659 1688 335.999 1587.36 218.609C1557.56 183.939 1528.46 147.929 1500.26 113.129C1341.24 -83.2908 1191 -268.911 929.801 -232.781C860.491 -223.201 794.581 -197.981 722.381 -153.241C689.471 -132.871 657.871 -110.081 627.271 -87.8908C518.951 -9.6908 416.741 64.2692 269.431 26.7992C89.001 -19.0008 -71.509 -227.811 -221.319 -611.551Z" fill="white"/>
<path d="M-216.919 -611.061L-217.919 -610.461C-150.52 -441.561 -83.7097 -310.381 -13.5996 -209.381C29.3003 -147.421 74.0005 -96.5005 119.21 -57.9506C169.321 -15.1506 221.72 13.7094 274.73 28.0494C423.84 68.1494 528 -3.5105 638.271 -79.4105C667.671 -99.6505 698.17 -120.631 729.57 -139.411C802.18 -182.711 868 -207.681 936.901 -218.001C1208.12 -258.361 1363.94 -73.0005 1529 123.309C1551.5 150.109 1574.8 177.749 1598.4 204.909C1645.61 259.229 1689.61 301.669 1732.92 334.639C1782.92 372.839 1832.53 398.899 1884.43 414.539C1934.24 429.459 2001.75 443.159 2081.66 415.389C2164.76 386.539 2246.17 318.639 2330.48 208.059L2329.68 207.209C2143.92 450.919 2000.51 448.13 1884.59 413.329C1787.59 384.229 1699.48 319.609 1598.96 204.059C1575.36 177.059 1552.16 149.259 1529.66 122.469C1445.55 22.3195 1366 -72.1306 1272.63 -137.851C1222.53 -173.011 1172.82 -196.851 1120.63 -210.711C1062.41 -226.111 1002.2 -228.901 936.8 -219.201C867.8 -208.901 801.88 -183.921 729.171 -140.511C697.671 -121.721 667.271 -100.751 637.771 -80.5106C527.771 -4.73059 423.841 66.7994 275.031 26.7894C96.1106 -21.3306 -64.8093 -230.001 -216.919 -611.061Z" fill="white"/>
<path d="M-212.42 -610.461L-213.42 -609.851C-144.62 -441.201 -76.9099 -310.261 -6.2998 -209.381C36.7002 -147.911 81.3101 -97.231 126.41 -58.671C176.22 -16.001 228.12 13.2191 280.63 28.139C431.44 70.939 537.25 1.57904 649.37 -71.7709C677.57 -90.2009 706.67 -109.351 736.68 -126.571C809.68 -168.641 875.68 -193.261 944.2 -204.171C1227.93 -249.391 1383.24 -70.6809 1563 136.169C1578.2 153.869 1594.2 172.169 1610.21 190.359C1709.48 303.119 1799.09 371.619 1892.3 405.809C1942 424.119 2008.71 442.549 2084.51 422.999C2164.72 402.269 2242.93 343.459 2323.74 242.999L2322.94 241.999C2147.94 459.639 2012.61 448.719 1892.5 404.469C1799.5 370.279 1709.98 301.899 1610.87 189.259C1594.87 171.069 1578.96 152.769 1563.56 135.059C1475 33.1091 1391.44 -63.001 1294.13 -128.511C1185.13 -201.861 1073.81 -226.361 943.9 -205.621C875.29 -194.711 809.28 -170.001 736.08 -127.901C706.08 -110.691 676.97 -91.5309 648.77 -73.101C536.85 0.129028 431.24 69.3591 280.83 26.6791C103.21 -23.6409 -58.1096 -232.171 -212.42 -610.461Z" fill="white"/>
<path d="M-208 -610L-209 -609.39C-138.9 -441.11 -70.29 -310.29 0.919922 -209.65C44.02 -148.65 88.6299 -98.11 133.43 -59.55C182.94 -16.99 234.34 12.45 286.35 27.99C438.86 73.7 546.58 6.64996 660.59 -64.4C687.39 -81.13 715.09 -98.35 743.4 -113.99C817 -154.7 883 -179.07 951.1 -190.71C1250.1 -241.63 1413.25 -58.55 1602.1 153.51C1608.6 160.897 1615.2 168.29 1621.9 175.69C1721.41 287.12 1809.72 357.44 1899.9 397.09C1952.7 420.24 2016.21 442.31 2087.22 430.79C2164.52 418.3 2239.63 368.23 2316.84 278L2316.04 277C2143.12 479.17 2010.71 444.37 1900.2 395.87C1810.19 356.35 1722 286 1622.67 174.72L1602.87 152.54C1441.85 -28.24 1299.53 -188 1075.81 -199.92C1036.81 -202 995.4 -199.56 951 -192C882.79 -180.36 816.68 -156 743 -115.13C714.59 -99.37 686.89 -82.13 660.09 -65.42C546.28 5.38 438.76 72.43 286.55 26.84C110.21 -26.0601 -51.6104 -234.36 -208 -610Z" fill="white"/>
<path d="M-203.621 -609.48L-204.621 -608.88C-133.211 -440.95 -63.7109 -310.38 7.99902 -209.74C51.0991 -149.24 95.7092 -98.9205 140.409 -60.3705C189.619 -17.9305 240.619 11.7695 291.929 28.0195C446.449 76.6395 556.059 11.8895 672.169 -56.7305C697.469 -71.6404 723.569 -87.1605 750.169 -101.35C824.289 -140.88 890.389 -165 957.999 -177.25C1275.53 -234.84 1449.35 -42.5505 1633.47 160.9C1733.38 271.36 1820.47 343.5 1907.47 388.109C1962.97 416.479 2023.47 442.31 2089.79 438.31C2164.2 433.82 2236.1 392.84 2309.79 312.7L2309.09 311.7C2147.17 487.7 2022.09 445.309 1907.85 386.87C1820.85 342.37 1733.93 270.229 1634.12 159.87C1528.81 43.4795 1440.12 -50.4905 1337.89 -112.81C1221.63 -183.55 1100.81 -204.53 957.799 -178.58C889.989 -166.34 823.889 -142.21 749.679 -102.58C723.069 -88.4005 696.869 -72.8804 671.569 -57.9604C555.659 10.5396 446.149 75.1595 292.129 26.6595C117.109 -28.3605 -45.1111 -236.54 -203.621 -609.48Z" fill="white"/>
<path d="M-199.219 -609L-200.219 -608.39C-127.609 -440.83 -57.1094 -310.49 15.2007 -209.74C58.4006 -149.6 102.911 -99.65 147.411 -61C196.221 -18.69 246.821 11.26 297.631 28.11C454.151 79.88 565.961 17.32 684.271 -48.89C707.871 -62.1 732.381 -75.81 757.081 -88.41C831.891 -126.73 897.991 -150.49 965.081 -163.47C1277 -223.32 1450.65 -65.7 1645.27 146.48C1746 256.32 1831.79 330.4 1915.3 379.51C1969.5 411.39 2027.81 442.92 2092.22 446.31H2092.72C2164.22 450 2233 417.82 2303.14 347.86L2302.44 346.86C2151.52 497.33 2033.44 447.62 1915.8 378.39C1832.39 329.31 1746.58 255.23 1646 145.51C1536.76 26.44 1448.75 -58.55 1347.34 -113.59C1231.83 -176.4 1110.31 -192.65 965.001 -164.76C897.791 -151.91 831.591 -128.02 756.681 -89.71C732.001 -77 707.471 -63.4 683.871 -50.18C565.761 15.9 454.151 78.46 297.931 26.69C123.911 -30.78 -38.8093 -238.72 -199.219 -609Z" fill="white"/>
<path d="M-194.82 -608.391L-195.82 -607.791C-122 -440.711 -50.6096 -310.491 22.4004 -209.741C65.6104 -150.091 110.11 -100.261 154.52 -61.7406C203.02 -19.5506 253.13 10.6393 303.43 28.0994C462.25 83.0994 576.26 22.7594 696.97 -41.1306C718.77 -52.6506 741.28 -64.6506 763.97 -75.8106C839.49 -112.871 905.69 -136.391 972.2 -150.001C1271.33 -210.711 1443.65 -97.8306 1657 131.679C1760.58 243.229 1842.59 316.819 1923 370.649C1982.31 410.299 2036.21 443.999 2095.42 454.069C2164.13 465.709 2229.73 442.429 2296.24 382.659L2295.54 381.569C2144.54 517.239 2027.11 438.669 1923.54 369.319C1843.19 315.609 1761.18 241.999 1657.67 130.589C1569.56 35.7794 1472 -59.6406 1356.54 -114.931C1242 -169.731 1119.82 -181.371 972 -151.421C905.39 -137.961 839.09 -114.321 763.48 -77.2206C740.78 -66.0706 718.17 -54.2206 696.37 -42.5506C575.86 21.2294 462.05 81.4494 303.63 26.5594C130.61 -33.2106 -32.4998 -241.001 -194.82 -608.391Z" fill="white"/>
<path d="M-190.42 -607.91L-191.42 -607.3C-116.42 -440.71 -44.2107 -310.74 29.5793 -209.86C72.8894 -150.69 117.29 -101.1 161.5 -62.4302C209.699 -20.3602 259.309 10.0798 309.109 28.1398C470.429 86.6998 586.84 28.5099 710.05 -33.2101C729.86 -43.1501 750.259 -53.3301 770.859 -63.0302C847.289 -98.9202 913.49 -122.2 979.299 -136.27C1293 -203.31 1469.65 -94.0701 1668.77 117.26C1745 198.13 1835.69 290.51 1930.8 362.05L1934.2 364.59C1987.2 404.48 2042.11 445.83 2100.12 462.8C2165.23 481.72 2227.23 467.05 2289.44 417.94L2288.84 416.85C2150.52 526.09 2040.84 443.4 1934.84 363.62L1931.44 361.08C1836.44 289.54 1745.72 197.28 1669.51 116.41C1518.26 -44.1201 1379.84 -145.84 1184.72 -156.15C1122.62 -159.42 1054.91 -153.48 979 -137.36C913.089 -123.29 846.789 -100 770.379 -64.0001C749.879 -54.3001 729.379 -44.1202 709.569 -34.1802C586.569 27.4099 470.249 85.4899 309.329 27.0499C137.209 -35.7501 -26.3003 -243.32 -190.42 -607.91Z" fill="white"/>
<path d="M-185.92 -607.42L-186.92 -606.82C-110.81 -440.71 -37.6006 -310.86 36.8994 -210C80.2095 -151.31 124.609 -102 168.719 -63.2899C216.619 -21.2899 265.829 9.34009 314.929 28.0101C478.929 90.2101 597.929 34.0701 723.869 -25.3399C741.479 -33.5799 759.579 -42.1899 777.779 -50.3399C855.189 -85.0999 921.489 -108.14 986.399 -122.69C1316.24 -196.89 1490.65 -96.2599 1680.57 102.58C1763.38 189.27 1851.57 280.08 1938.57 353.2C1943.77 357.56 1949.07 362.05 1954.27 366.41C2004.18 408.6 2055.68 452.25 2109.19 473.59C2169.1 497.48 2225.8 490.69 2282.61 452.74L2282.11 451.52C2156.29 535.67 2058.48 452.86 1954.87 365.32L1939.17 352.1C1852.17 278.99 1764.05 188.18 1681.24 101.49C1571.36 -13.5699 1476.95 -80.9999 1375.14 -117C1263.73 -156.41 1140.14 -158.71 986.199 -124C921.199 -109.45 854.889 -86.4199 777.379 -51.4999C759.179 -43.3799 741.079 -34.7699 723.469 -26.4999C597.659 32.7901 478.949 88.9201 315.229 26.8401C143.709 -38.2999 -20.3003 -245.75 -185.92 -607.42Z" fill="white"/>
<path d="M-181.521 -606.939L-182.42 -606.329C-105.21 -440.829 -31.1006 -311.099 44.1995 -209.999C87.6094 -151.809 131.909 -102.579 175.819 -63.8995C223.319 -22.0795 272.13 8.84058 320.729 28.1006C487.729 94.1806 609.559 40.1005 738.379 -17.2495C753.479 -23.9094 769.179 -30.9495 784.679 -37.6094C863.389 -71.3195 929.79 -94.1094 993.5 -109.149C1298.83 -181.149 1481.65 -129.639 1692.37 87.8506C1708.68 104.711 1724.95 121.564 1741.18 138.411C1812.29 212.311 1879.49 281.901 1946.4 344.471C1955.8 353.201 1965.3 362.171 1974.4 370.901C2070.61 462.321 2161.52 548.641 2275.94 487.781L2275.54 486.571C2161.82 547.191 2071.11 461 1975.2 369.931C1966 361.201 1956.6 352.231 1947.2 343.501C1880.29 281.061 1813.2 211.341 1742.08 137.621C1725.88 120.767 1709.61 103.917 1693.27 87.0706C1586.16 -23.5095 1490.95 -86.7994 1384.64 -117.999C1275.53 -149.999 1151.22 -147.539 993.5 -110.319C929.699 -95.3195 863.29 -72.4894 784.5 -38.7894C768.9 -32.1194 753.299 -25.2094 738.199 -18.4194C609.479 38.8105 487.969 92.8806 321.199 26.9305C150.109 -40.8495 -14.3005 -248.179 -181.521 -606.939Z" fill="white"/>
<path d="M-177.12 -606.449L-178.02 -605.849C-99.8101 -440.849 -24.8 -311.459 51.3 -210.099C94.71 -152.269 138.91 -103.409 182.82 -64.7292C230.02 -23.1392 278.33 8.14075 326.43 27.9008C496.75 98.2208 621.43 45.9608 753.58 -9.19922C765.98 -14.4192 778.88 -19.7492 791.68 -24.9592C846.59 -47.3892 919.89 -75.6392 1000.68 -95.6492C1320.14 -174.459 1504.26 -130.199 1704.18 73.2408C1752 121.861 1799.19 172.061 1845 220.681C1882.89 260.931 1918.7 299.001 1954.2 335.621C1967.8 349.681 1981.31 364.111 1994.41 378.051C2082.82 472.501 2166.42 561.621 2269 522.701L2268.69 521.481C2166.58 560.161 2083.28 471.291 1995.07 377.201C1982 363.261 1968.4 348.711 1954.8 334.771C1919.3 298.151 1883.49 260.081 1845.59 219.831C1799.89 171.211 1752.59 121.021 1704.78 72.4008C1504.56 -131.419 1320.24 -175.669 1000.3 -96.7392C919.49 -76.7392 845.99 -48.4792 791.08 -26.0592C778.28 -20.8392 765.48 -15.5092 752.98 -10.2892C621.16 44.8708 496.55 97.0108 326.53 26.8108C156.32 -43.5092 -8.5 -250.599 -177.12 -606.449Z" fill="white"/>
<path d="M-172.721 -605.85L-173.621 -605.24C-94.4111 -440.83 -18.5007 -311.59 58.5093 -210C148.319 -91.5496 240.429 -11.3997 332.139 28.0004C411.339 62.0704 485.649 72.6204 565.959 61.3404C636.869 51.4004 701.269 25.9404 769.479 -0.859619C779.079 -4.61963 788.679 -8.36957 798.379 -12.1296C858.379 -35.4096 930.199 -61.9596 1007.61 -81.9696C1300.74 -157.61 1500.36 -157.61 1715.78 58.5704C1798.19 141.14 1875.78 229.16 1950.78 314.28L1961.89 326.89C1979.79 347.13 1997.29 368.11 2014.19 388.48C2094.7 485.11 2170.81 576.41 2262.12 557.61L2261.92 556.28C2171.13 575 2095.32 483.9 2015 387.51C1998.1 367.14 1980.5 346.16 1962.7 325.92L1951.59 313.31C1876.6 228.19 1799 140.17 1716.68 57.6004C1615.37 -44.1196 1515.68 -100.62 1403.15 -120.4C1299.34 -138.57 1177.32 -127 1007.61 -83.2796C930.199 -63.2796 858.289 -36.7196 798.279 -13.4496C788.579 -9.68958 778.979 -5.92963 769.379 -2.16962C634.069 51.0604 506.379 101.37 332.639 26.6904C162.519 -46.2996 -2.70068 -253.15 -172.721 -605.85Z" fill="white"/>
<path d="M-168.32 -605.359L-169.219 -604.629C2.10059 -254.839 167.921 -47.8794 337.931 28.1406C418.931 64.3906 495.151 76.6406 577.561 66.7006C650.371 57.9706 716.47 33.4807 786.48 7.53064C792.781 5.23065 798.98 2.92059 805.281 0.620605C881.49 -27.3794 946.28 -49.8194 1014.71 -68.2494C1327.14 -152.389 1523.16 -158.089 1727.58 44.1506C1820.69 136.171 1905.8 239.001 1969.6 318.281C1991.81 345.921 2013.11 374.781 2033.81 402.671C2104.42 498.211 2171.23 588.531 2249.03 592.671C2251.13 592.791 2253.13 592.791 2255.23 592.791V591.451C2253.13 591.451 2251.13 591.451 2249.03 591.331C2171.73 587.211 2105.12 497.121 2034.61 401.711C2013.91 373.821 1992.61 344.841 1970.4 317.321C1906.6 238.001 1821.49 135.201 1728.28 43.0506C1677.07 -7.61938 1626.67 -45.3294 1574.16 -72.3694C1523.26 -98.5594 1470.25 -114.559 1412.16 -121.369C1310.54 -133.229 1195.32 -118.199 1014.41 -69.5794C946 -51.1494 881.09 -28.7194 804.88 -0.579407C798.58 1.72058 792.28 4.02063 786.08 6.33063C647.08 57.7406 515.75 106.331 338.13 26.9406C168.621 -49.0894 2.90039 -255.809 -168.32 -605.359Z" fill="white"/>
<path d="M-163.819 -604.881L-164.719 -604.151C7.60107 -257.631 173.921 -50.7908 343.731 28.1392C425.641 66.2092 506.151 80.6392 589.861 72.2692C664.671 64.7592 735.861 40.0192 804.681 16.0092L812.381 13.3491C879.891 -10.1709 949.801 -34.4209 1022.01 -54.6509C1327 -140.271 1527.56 -177.251 1739.58 29.4691C1815.58 103.549 1893.4 195.089 1977.58 309.469C2004.19 345.599 2029.19 383.789 2053.29 420.649C2117.7 519.099 2178.61 612.089 2248.51 627.729L2248.71 626.399C2179.21 610.879 2118.5 518.009 2054.19 419.799C2029.99 382.939 2005.09 344.749 1978.38 308.619C1894.18 194.279 1816.27 102.619 1740.26 28.5391C1689.26 -21.1709 1638.45 -57.4609 1585.14 -82.1509C1534.34 -105.671 1480.93 -118.891 1421.73 -122.411C1420.43 -122.531 1419.03 -122.531 1417.73 -122.651C1307.41 -128.471 1184.2 -101.431 1021.89 -55.8408C949.581 -35.6008 879.771 -11.2208 812.161 12.1592L804.461 14.8292C661.461 64.6592 526.331 111.589 344.211 26.9592C174.521 -52.0009 8.40088 -258.601 -163.819 -604.881Z" fill="white"/>
<path d="M-159.42 -604.391L-160.32 -603.661C12.9998 -260.541 179.72 -53.8206 349.44 27.9994C536.76 118.449 680.37 71.4094 819.19 25.9394C834.09 21.0894 849.09 16.1194 863.99 11.1494C917.5 -6.56061 972.9 -24.8506 1028.99 -41.2306C1354.34 -136.151 1548.26 -180.401 1751.28 14.6794C1828.69 89.1294 1907.4 185.269 1985.31 300.459C2016.41 346.529 2044.81 395.629 2072.12 443.039C2130.92 544.879 2181.73 632.909 2241.53 662.369L2241.93 661.159C2182.43 631.819 2131.72 543.999 2073 442.309C2045.59 394.909 2017.29 345.799 1986.09 299.609C1908.2 184.299 1829.49 87.9994 1752 13.5894C1701.1 -35.2706 1650.09 -69.9506 1595.79 -92.2506C1545.08 -113.111 1491.17 -123.541 1430.87 -123.781C1318.26 -124.381 1193.24 -90.4406 1028.87 -42.4206C972.76 -26.0606 917.36 -7.75061 863.87 9.9494C848.87 14.9494 833.97 19.9494 819.07 24.7494C680.45 70.2094 537.07 117.129 350.02 26.8094C180.32 -54.9106 13.6997 -261.391 -159.42 -604.391Z" fill="white"/>
<path d="M-155 -603.791L-155.9 -603.061C-74.1899 -443.621 7.62012 -311.351 87.3301 -209.741C176.33 -96.381 266.45 -16.241 355.16 28.139C438.76 69.969 520.87 88.519 606.48 84.639C682.59 81.239 753.8 60.999 826.11 38.809C858.11 28.989 890.81 18.439 922.31 8.37903C959.42 -3.51099 997.82 -15.871 1036.13 -27.511C1049.83 -31.641 1063.23 -35.761 1076.53 -39.761C1370 -129.241 1564 -188.281 1763.08 0.129028C1841.89 74.819 1919.3 172.899 1993.11 291.849C2028.91 349.439 2060.21 411.389 2090.52 471.159C2141.02 570.709 2184.63 656.669 2234.73 697.409L2235.33 696.319C2185.43 655.699 2141.92 569.859 2091.52 470.439C2061.21 410.659 2029.81 348.709 1994 290.999C1920.2 172.049 1842.69 73.849 1763.78 -1.00098C1564.26 -189.861 1370.14 -130.691 1076.31 -41.091C1063.01 -37.091 1049.61 -32.971 1035.91 -28.851C997.5 -17.211 959.2 -5.00098 922.09 6.99902C890.59 17.189 857.89 27.6089 825.89 37.429C668.27 85.929 533.55 115.879 355.64 26.889C185.92 -58.071 18.8999 -264.421 -155 -603.791Z" fill="white"/>
<path d="M-150.62 -603.301L-151.52 -602.581C-68.9998 -443.871 13.7002 -311.711 94.4102 -209.741C183.12 -97.7408 272.73 -17.5708 360.84 28.1392C444.64 71.6592 527.05 92.2792 612.66 91.1392C692.47 90.0492 768.18 70.1392 832.88 51.4992C883.59 36.9992 935 20.4992 984.7 4.6192C1003.8 -1.45081 1023.5 -7.75079 1043.11 -13.9308C1074.61 -23.8808 1105.01 -33.7007 1134.52 -43.2808C1396.94 -128.511 1586.52 -190.101 1774.68 -14.5408C1853.19 58.6892 1931.3 161.629 2000.71 282.999C2041.21 353.999 2075.21 430.909 2108 505.229C2148.4 596.769 2186.61 683.229 2227.61 732.319L2228.41 731.319C2187.61 682.319 2149.41 596.019 2109 504.599C2076.09 430.269 2042.19 353.289 2001.59 282.359C1931.2 158.999 1855.09 58.8092 1775.38 -15.5108C1729.48 -58.3108 1682.87 -88.1408 1633.07 -106.441C1587.26 -123.301 1538.46 -130.571 1483.95 -128.441C1380.54 -124.561 1266.43 -87.4408 1134.22 -44.5408C1104.81 -34.9608 1074.41 -25.1408 1042.81 -15.2008L984.4 3.39917C934.7 19.2892 883.19 35.6492 832.58 50.3192C688 91.9092 543 121.499 361.24 27.0492C191.42 -61.3408 24 -267.461 -150.62 -603.301Z" fill="white"/>
<path d="M-145.064 -602.33L-145.965 -601.61C-62.6545 -443.61 20.9553 -311.71 102.765 -209.26C191.075 -98.5201 280.286 -18.5201 367.696 28.4799C554.116 128.87 703.695 101.35 840.845 64.6099C911.045 45.8399 981.755 22.7999 1050.16 0.479919L1051.36 0.119934C1097.26 -14.79 1140.57 -30.0701 1182.47 -44.7401C1429.47 -131.19 1608.02 -193.74 1787.64 -28.7401C1866.64 43.7699 1943.35 148.76 2009.64 274.61C2055.14 361.06 2092.85 459.75 2126.05 546.93C2158.75 632.53 2189.56 713.4 2221.96 767.47L2222.86 766.75C2190.56 712.75 2159.75 631.92 2127.05 546.44C2093.75 459.27 2056.05 360.44 2010.54 274.01C1944.16 147.93 1867.35 42.9299 1788.25 -29.7001C1608.23 -195.07 1429.51 -132.52 1182.16 -45.9401C1140.26 -31.2701 1096.85 -16.1201 1051.05 -1.08008L1049.85 -0.720093C981.435 21.5899 910.725 44.6299 840.625 63.4199C703.625 100.16 554.295 127.56 368.075 27.4199C197.975 -64.2501 30.0557 -270.25 -145.064 -602.33Z" fill="white"/>
<path d="M-141.82 -602.33L-142.72 -601.6C-58.7202 -444.47 25.8997 -312.6 108.71 -209.6C196.71 -100.24 285.33 -20.3401 372.24 28.1599C563.06 134.49 717.07 109.16 846.59 77.0199C919.79 58.8399 991.1 35.6799 1057.21 13.3699C1114.82 -6.03015 1168.42 -26.4001 1220.21 -46.0401C1455.55 -135.3 1625.57 -199.8 1798.19 -43.6401C1877.39 27.9999 1952.8 135 2016.21 265.66C2066.81 369.93 2106.12 490.57 2140.72 596.9C2165.82 674.01 2189.53 746.9 2213.93 802.16L2214.93 801.56C2190.53 746.39 2166.82 673.56 2141.72 596.41C2107.12 489.96 2067.81 369.41 2017.11 265.05C1953.7 134 1878.19 26.9299 1798.89 -44.8501C1719.18 -117 1634.17 -146.57 1531.36 -137.84C1437.25 -130 1336.54 -91.6501 1219.93 -47.5201C1168.12 -27.8701 1114.52 -7.52008 1056.93 11.8899C990.82 34.1999 919.51 57.3599 846.41 75.5499C717.09 107.68 563.28 133.02 372.76 26.8099C204.42 -66.92 31.2998 -278.61 -141.82 -602.33Z" fill="white"/>
<path d="M-137.319 -601.85L-138.219 -601.12C-53.5093 -444.71 32.1011 -313 116.001 -209.62C203.521 -101.71 291.731 -21.8096 378.141 28.0004C563.861 135.18 716.471 120.87 853.591 89.5904C915.691 75.4104 980.701 56.0104 1064.41 26.7904C1131.72 3.27039 1193.62 -22.2096 1253.53 -46.8096C1471.15 -136.39 1643 -207.2 1810 -58.4296C1889.3 12.2604 1963.3 121.26 2024 256.68C2080.11 381.93 2120 528.39 2155.31 657.52C2173.23 723 2190.13 785 2207.13 836.72L2208.13 836.23C2191.13 784.46 2174.23 722.51 2156.32 657.03C2121 527.79 2081 381.2 2024.91 256C1964.2 120.41 1890.1 11.2904 1810.59 -59.5196C1733.59 -128.14 1651.27 -154.94 1551.66 -143.78C1460.75 -133.6 1364.54 -93.9496 1253.13 -48.1196C1193.22 -23.5096 1131.32 2.00043 1064 25.4704C980.291 54.6904 915.381 74.0904 853.281 88.2804C716.281 119.56 563.951 133.86 378.431 26.8104C209.421 -70.6696 35.8008 -282.25 -137.319 -601.85Z" fill="white"/>
<path d="M-132.92 -601.24L-133.82 -600.51C39.3999 -284.91 213.62 -73.4602 383.74 28.1398C574 141.63 731.38 129.38 860.39 102.46C924.39 89.1298 991.39 69.3598 1071.39 40.4598C1146.9 13.1797 1215.7 -17.5403 1282.31 -47.2003C1493 -141.12 1659.37 -215.32 1821.69 -73.0002C1902.1 -2.41028 1972.8 105.62 2031.71 248C2093.71 397.86 2133.22 575.36 2168.23 732C2179.33 781.83 2189.83 829 2200.33 871.68L2201.33 871.31C2190.83 828.64 2180.33 781.47 2169.23 731.64C2134.32 574.87 2094.72 397.25 2032.71 247.27C1973.7 104.65 1903 -3.50024 1822.39 -74.1902C1659.67 -216.89 1492.95 -142.57 1282 -48.4902C1215.39 -18.7802 1146.59 11.8897 1071.08 39.1697C991.08 68.0297 924.08 87.6697 860.16 101.01C731.34 127.92 574.16 140.17 384.16 26.8098C214.22 -74.5502 40.2002 -285.88 -132.92 -601.24Z" fill="white"/>
<path d="M-128.519 -600.76L-129.419 -600.03C43.5811 -288.91 218.121 -77.5897 389.581 28.0203C474.391 80.2703 557.581 111.55 644.011 123.68C713.811 133.38 784.821 130.68 867.331 115.07C932.241 102.7 1001.33 82.8203 1078.55 54.0703C1160.96 23.3903 1235.55 -12.6198 1307.87 -47.4197C1513 -146.09 1674.87 -224.17 1833.59 -87.6498C1914.1 -17.9298 1983.4 92.0002 2039.61 239.23C2108.12 418.54 2147.42 643.45 2179 824.11C2184 852.96 2188.81 880.24 2193.61 906.8L2194.71 906.55C2189.91 880.12 2185.21 852.84 2180.11 823.99C2148.5 643.21 2109.2 418.3 2040.59 238.86C1984.4 91.5502 1914.9 -18.5397 1834.29 -88.4998C1761.18 -151.42 1682.87 -173 1587.66 -156.64C1501.35 -141.72 1411.55 -98.5598 1307.53 -48.3698C1235.33 -13.5698 1160.72 22.3203 1078.31 52.9902C1001.1 81.7302 932.091 101.73 867.191 113.99C747.481 136.65 585.001 147.32 390.001 27.0502C218.821 -78.6797 44.4009 -289.88 -128.519 -600.76Z" fill="white"/>
<path d="M-124.109 -600.27L-125.009 -599.54C47.511 -293.16 222.521 -82.0695 395.241 28.0005C480.151 82.1905 563.561 115.54 650.171 130.21C720.781 142.09 793.981 141.36 874.091 127.66C940.401 116.39 1009.51 96.7404 1085.51 67.5204C1173.92 33.5804 1253.73 -7.76953 1330.84 -47.7795C1531.46 -151.78 1689.84 -233.89 1845.19 -102.34C1925.6 -33.8395 1993.51 78.0705 2047.19 230.36C2123.19 445.81 2158.19 719.7 2186.41 939.76L2186.61 941.57L2187.71 941.33L2187.51 939.51C2159.31 719.45 2124.3 445.44 2048.29 229.87C1994.51 77.3705 1926.4 -34.7896 1845.89 -103.41C1774.38 -164 1697.58 -183.31 1604.07 -164.27C1519.56 -147.06 1427.75 -99.4095 1330.54 -48.9995C1253.43 -8.99951 1173.62 32.3505 1085.31 66.3005C1009.41 95.5204 940.311 115.16 874.091 126.44C765.001 145 596.661 155 395.841 26.9304C223.221 -82.9996 48.3108 -294 -124.109 -600.27Z" fill="white"/>
<path d="M-119.71 -599.779L-120.61 -599.059C51.2 -297.639 226.62 -86.6793 400.94 28.0007C486.05 84.0007 569.66 119.661 656.37 136.881C728.57 151.181 802.08 152.401 880.99 140.521C948.3 130.351 1017.6 111.001 1092.61 81.2507C1186.22 44.1508 1270.43 -2.74927 1351.94 -47.9993C1548.86 -157.609 1704.38 -244.169 1857 -116.869C1937.1 -49.6993 2003.71 64.1507 2055 221.651C2127.11 443.281 2158.61 727.651 2179.82 976.511L2180.92 976.391C2159.62 727.481 2128.22 443.001 2056 221.161C2004.71 63.3007 1937.9 -50.7893 1857.59 -117.999C1787.38 -176.559 1711.78 -193.649 1619.67 -171.829C1536.46 -152.189 1446.67 -102.119 1351.54 -49.2493C1270.13 -3.86926 1185.82 42.9307 1092.31 80.0007C1017.31 109.711 948.2 129.111 880.89 139.291C709.47 165.121 557.16 129.471 401.54 27.0207C227.32 -87.7693 52 -298.489 -119.71 -599.779Z" fill="white"/>
<path d="M-115.311 -599.18L-116.21 -598.45C54.4995 -302.45 230.42 -91.6497 406.64 28.1403C563 134.35 720.37 175.33 887.79 153.26C955.6 144.26 1024.91 125.26 1099.61 94.8203C1197.42 54.8203 1285.43 2.44031 1370.54 -48.2397C1557.16 -159.18 1718.28 -255.09 1868.59 -131.54C1948.4 -65.8197 2013.71 50.0903 2062.59 212.92C2138.32 465 2161.82 789.43 2172.93 1011.43L2174.02 1011.31C2162.92 789.19 2139.42 464.74 2063.71 212.43C2014.71 49.3603 1949.3 -66.6697 1869.29 -132.63C1800.09 -189.49 1725.48 -204.41 1634.29 -179.79C1552.16 -157.61 1463.75 -105 1370.14 -49.3297C1285.03 1.22028 1197.14 53.6003 1099.31 93.6103C1024.71 123.92 955.5 143.08 887.689 151.93C720.469 174 563.26 133.02 407.14 26.9303C231.219 -92.7397 55.3994 -303.34 -115.311 -599.18Z" fill="white"/>
<path d="M-110.81 -598.689L-111.71 -597.969C-18.7998 -438.769 76.9104 -302.369 172.62 -192.769C259.62 -93.0994 349.03 -12.8395 438.14 45.4805C517.75 97.6105 599.26 133.861 680.37 153.021C750.567 169.642 823.111 173.99 894.79 165.871C1083.91 144.661 1246.23 41.8406 1389.54 -48.9995C1481.54 -107.319 1568.46 -162.359 1649.47 -186.859C1739.18 -213.999 1812.59 -201.129 1880.49 -146.209C1980.2 -65.5795 2054.91 98.5806 2102.72 341.561C2139.32 527.911 2160.72 764.94 2166.22 1046.23H2167.32C2161.72 764.82 2140.32 527.671 2103.72 341.311C2081.12 226.251 2052.21 127.921 2017.91 48.9905C1979.7 -38.7894 1933.7 -104.739 1881.09 -147.299C1812.99 -202.469 1739.28 -215.299 1649.09 -188.039C1568 -163.429 1480.95 -108.379 1388.94 -50.0594C1245.83 40.6306 1083.61 143.321 894.69 164.541C546 203.821 207.62 -52.9995 -110.81 -598.689Z" fill="white"/>
</g>
</g>
<defs>
<clipPath id="clip0_317_728">
<rect width="1920" height="1187" fill="white" transform="matrix(-1 0 0 1 1920 -140)"/>
</clipPath>
</defs>
</svg>
