<svg width="78" height="72" viewBox="0 0 78 72" fill="none" xmlns="http://www.w3.org/2000/svg">
<path d="M52.2776 7.30469C53.0283 7.30469 53.6075 7.93016 53.6077 8.66406C53.6077 9.39803 53.0284 10.0234 52.2776 10.0234C47.7718 10.0235 43.7085 13.1489 42.4172 17.6436C42.2472 18.2371 41.7045 18.6353 41.1077 18.6182L41.0735 18.6602L40.7571 18.5625C40.0454 18.3426 39.6637 17.5811 39.8665 16.877L40.0237 16.3652C41.7574 11.1186 46.568 7.30476 52.2776 7.30469Z" fill="#EF7907" stroke="white"/>
<path d="M63.894 50.7859H58.9153C58.4572 50.7859 58.0855 50.4009 58.0855 49.9263C58.0855 49.4516 58.4571 49.0666 58.9153 49.0666H63.894C70.7568 49.0666 76.3407 43.2821 76.3407 36.1727C76.3407 29.0633 70.7568 23.2788 63.894 23.2788H63.7742C63.5336 23.2788 63.3048 23.1708 63.1472 22.9823C62.9895 22.7938 62.9184 22.5439 62.9528 22.297C63.0268 21.7616 63.0642 21.2238 63.0642 20.7001C63.0642 14.5386 58.2247 9.52525 52.2769 9.52525C49.963 9.52525 47.7564 10.2743 45.8952 11.692C45.4862 12.0033 44.9054 11.8652 44.6689 11.3991C39.398 1.00177 25.6311 -0.394489 18.4936 8.65032C15.4868 12.4608 14.3054 17.4175 15.2521 22.2486C15.3564 22.7821 14.9623 23.2795 14.4389 23.2795H14.1064C7.24355 23.2795 1.65965 29.064 1.65965 36.1734C1.65965 43.2828 7.24355 49.0673 14.1064 49.0673H19.085C19.5432 49.0673 19.9148 49.4523 19.9148 49.9269C19.9148 50.4015 19.5432 50.7865 19.085 50.7865H14.1064C6.3283 50.7865 0 44.2309 0 36.1733C0 28.3418 5.97795 21.9292 13.455 21.5755C12.7527 16.5634 14.0957 11.5078 17.2086 7.56233C24.8503 -2.12222 39.495 -1.03671 45.6857 9.76227C47.6606 8.47962 49.9205 7.80675 52.2766 7.80675C59.4827 7.80675 65.1929 14.1604 64.6932 21.5836C72.1014 22.014 78 28.3928 78 36.1727C78 44.2309 71.6717 50.7859 63.8936 50.7859L63.894 50.7859Z" fill="#EF7907"/>
<path d="M38.8889 70.9314C27.4502 70.9314 18.144 61.291 18.144 49.4413C18.144 37.5917 27.4501 27.9512 38.8889 27.9512C50.3277 27.9512 59.6338 37.5915 59.6338 49.4413C59.6338 61.2909 50.3277 70.9314 38.8889 70.9314ZM38.8889 29.6708C28.3655 29.6708 19.804 38.54 19.804 49.4413C19.804 60.3428 28.3656 69.2118 38.8889 69.2118C49.4121 69.2118 57.9738 60.3426 57.9738 49.4413C57.9738 38.5398 49.4121 29.6708 38.8889 29.6708Z" fill="#EF7907" stroke="#EF7907"/>
<path d="M39.2681 40.5977C39.896 40.5977 40.3753 41.1199 40.3755 41.7266V58.0898C40.3753 58.6972 39.8958 59.2188 39.2681 59.2188C38.6402 59.2187 38.1608 58.6965 38.1606 58.0898V41.7266C38.1609 41.1199 38.6402 40.5977 39.2681 40.5977Z" fill="#EF7907" stroke="#EF7907"/>
<path d="M38.4783 40.9375C38.912 40.4874 39.6236 40.4873 40.0574 40.9365L44.9177 45.9717L44.9919 46.0566C45.3169 46.4686 45.317 47.0588 44.9919 47.4707L44.9177 47.5557C44.7294 47.7513 44.4862 47.8628 44.2361 47.8877L44.1277 47.8926C43.8756 47.8925 43.6251 47.8047 43.4226 47.6338L43.3386 47.5557L39.2673 43.3389L35.197 47.5547L35.198 47.5557C34.7913 47.9778 34.14 48.0036 33.7029 47.6348L33.6189 47.5557C33.1946 47.1161 33.1947 46.4113 33.6189 45.9717L38.4783 40.9365V40.9375Z" fill="#EF7907" stroke="#EF7907"/>
</svg>
