<svg xmlns="http://www.w3.org/2000/svg" viewBox="0 0 155.55 22"><defs><style>.cls-1{fill:#601d96;}</style></defs><g id="Layer_2" data-name="Layer 2"><g id="Layer_1-2" data-name="Layer 1"><path class="cls-1" d="M34,19.89V2.37h3.33V19.89ZM36.89,5.25V2.37h7.76V5.25Zm0,7.17V9.54h7.32v2.88Zm0,7.47V17h8v2.88Z"/><path class="cls-1" d="M50.57,19.89l-4.08-13h3.43l3.92,13Zm1,0V17.15h3.53v2.74Zm1.32,0,3.36-13h3.21l-3.53,13Z"/><path class="cls-1" d="M68,20.34a7.83,7.83,0,0,1-3-.55,6.64,6.64,0,0,1-2.23-1.5,6.38,6.38,0,0,1-1.38-2.15,6.84,6.84,0,0,1-.47-2.49v-.51a6.89,6.89,0,0,1,.49-2.55,6.59,6.59,0,0,1,1.42-2.16A6.51,6.51,0,0,1,65,6.94a8.49,8.49,0,0,1,6,0,6.71,6.71,0,0,1,2.24,1.49,6.38,6.38,0,0,1,1.4,2.16,6.88,6.88,0,0,1,.48,2.55v.51a6.83,6.83,0,0,1-.46,2.49A6.45,6.45,0,0,1,71,19.79,7.71,7.71,0,0,1,68,20.34Zm0-2.85A3.72,3.72,0,0,0,70,17a3.45,3.45,0,0,0,1.28-1.47,5,5,0,0,0,.43-2.1,4.79,4.79,0,0,0-.45-2.12A3.45,3.45,0,0,0,70,9.8a4.09,4.09,0,0,0-4.06,0,3.56,3.56,0,0,0-1.31,1.46,4.79,4.79,0,0,0-.45,2.12,4.7,4.7,0,0,0,.44,2.1A3.54,3.54,0,0,0,65.89,17,3.72,3.72,0,0,0,68,17.49Z"/><path class="cls-1" d="M76.52,4.86V2.37h5V4.86Zm1.63,15V2.37h3.34V19.89Z"/><path class="cls-1" d="M87.92,19.89l-4.08-13h3.43l3.91,13Zm1,0V17.15h3.53v2.74Zm1.32,0,3.36-13H96.8l-3.53,13Z"/><path class="cls-1" d="M102.84,20.22a5.69,5.69,0,0,1-2.48-.5,3.87,3.87,0,0,1-1.65-1.44A4.09,4.09,0,0,1,98.12,16a3.68,3.68,0,0,1,.71-2.35,4.23,4.23,0,0,1,2-1.37,9.08,9.08,0,0,1,3-.45h3v2h-3.07a2.51,2.51,0,0,0-1.76.56,1.89,1.89,0,0,0-.61,1.46A1.85,1.85,0,0,0,102,17.3a2.56,2.56,0,0,0,1.76.55,3.32,3.32,0,0,0,1.28-.25,2.17,2.17,0,0,0,1-.87,3.35,3.35,0,0,0,.44-1.67l.82.94a5.51,5.51,0,0,1-.66,2.3,3.6,3.6,0,0,1-1.49,1.43A5,5,0,0,1,102.84,20.22Zm4.2-.33V16h-.55V11.73a2.28,2.28,0,0,0-.55-1.68,2.32,2.32,0,0,0-1.7-.55c-.4,0-.88,0-1.44,0l-1.7.06-1.52.08V6.83l1.25-.09c.46,0,.94-.06,1.43-.06l1.38,0a9.23,9.23,0,0,1,3.35.53,4,4,0,0,1,2,1.66,5.58,5.58,0,0,1,.68,3v8.09Z"/><path class="cls-1" d="M113.26,19.89v-13h2.64v5.59h-.24a9.15,9.15,0,0,1,.53-3.33,4.14,4.14,0,0,1,1.57-2,4.73,4.73,0,0,1,2.61-.67h.14A4.26,4.26,0,0,1,124,8a7.05,7.05,0,0,1,1.2,4.47v7.47H121.9V12.14a2.81,2.81,0,0,0-.68-2,2.47,2.47,0,0,0-1.89-.74,2.71,2.71,0,0,0-2,.75,2.76,2.76,0,0,0-.75,2v7.66Z"/><path class="cls-1" d="M134.6,20.34a7,7,0,0,1-2.94-.57,6.1,6.1,0,0,1-2.07-1.54,6.45,6.45,0,0,1-1.23-2.16,7.59,7.59,0,0,1-.41-2.45v-.45a7.63,7.63,0,0,1,.42-2.53,6.33,6.33,0,0,1,1.26-2.16A6.06,6.06,0,0,1,131.71,7a7.48,7.48,0,0,1,5.91.1,5.3,5.3,0,0,1,3,4.57h-3.24a2.68,2.68,0,0,0-.85-1.68,2.86,2.86,0,0,0-2-.67,3,3,0,0,0-1.83.53,3.11,3.11,0,0,0-1.1,1.45,6,6,0,0,0-.35,2.12,6,6,0,0,0,.34,2.09,3.07,3.07,0,0,0,1.08,1.47,3.17,3.17,0,0,0,1.89.52,3.31,3.31,0,0,0,1.49-.31,2.58,2.58,0,0,0,1-.86,2.88,2.88,0,0,0,.47-1.25h3.24a5.35,5.35,0,0,1-.92,2.77,5.76,5.76,0,0,1-2.19,1.86A6.8,6.8,0,0,1,134.6,20.34Z"/><path class="cls-1" d="M149.28,20.34a7.07,7.07,0,0,1-2.94-.57,5.94,5.94,0,0,1-2.08-1.55A6.83,6.83,0,0,1,143,16.05a7.38,7.38,0,0,1-.42-2.45v-.46a7.54,7.54,0,0,1,.42-2.5,6.47,6.47,0,0,1,1.25-2.16A5.94,5.94,0,0,1,146.31,7a6.81,6.81,0,0,1,2.83-.56,6.43,6.43,0,0,1,3.54.92,5.92,5.92,0,0,1,2.15,2.43,7.35,7.35,0,0,1,.72,3.23v1.2H144v-2h9.46l-1,1a5.65,5.65,0,0,0-.36-2.13A2.94,2.94,0,0,0,151,9.64a3.29,3.29,0,0,0-1.84-.48,3.36,3.36,0,0,0-1.87.5,3.18,3.18,0,0,0-1.17,1.46,5.9,5.9,0,0,0-.39,2.26,5.93,5.93,0,0,0,.38,2.18A3.22,3.22,0,0,0,147.27,17a3.5,3.5,0,0,0,2,.54,3.66,3.66,0,0,0,2-.49,2.18,2.18,0,0,0,1-1.21h3.07a5.36,5.36,0,0,1-3.18,3.91A7,7,0,0,1,149.28,20.34Z"/><path class="cls-1" d="M27.55,0,25.94,2.75a4.17,4.17,0,0,1-3.61,2.08H11.91a7.29,7.29,0,0,0-6.35,3.6l-.16.28a7.68,7.68,0,0,0-.71,2.12H.05A11.37,11.37,0,0,1,.47,8.71,12.17,12.17,0,0,1,12.13,0Z"/><path class="cls-1" d="M17.39,17.39l-.25.43L16,19.8A4.43,4.43,0,0,1,12.15,22H4.58l.12-.22,2.36-4h0a.74.74,0,0,1,.64-.37Z"/><path class="cls-1" d="M22.46,8.71l-1.24,2.12L20,12.94h0a1.21,1.21,0,0,1-1,.6H8.64a3.16,3.16,0,0,0-2.71,1.55l-.42.72-.62,1.06a1,1,0,0,1-.9.52H1.83a1,1,0,0,1-1-.65,12.14,12.14,0,0,1-.82-3.2c0-.2,0-.4,0-.6H5.29a3.3,3.3,0,0,0,2.85-1.63l.28-.48.63-1.08a2.12,2.12,0,0,1,1.81-1Z"/></g></g></svg>