<svg width="61" height="60" viewBox="0 0 61 60" fill="none" xmlns="http://www.w3.org/2000/svg">
    <g clipPath="url(#clip0_39_87)">
        <path
            d="M29.1579 3C23.4627 3 18.0008 5.27571 13.9737 9.32649C9.94661 13.3773 7.68421 18.8713 7.68421 24.6V29.73C6.87447 30.4397 6.21837 31.3092 5.75663 32.2846C5.29488 33.2599 5.03735 34.3203 5 35.4C5.06114 36.9656 5.59103 38.4761 6.52024 39.7336C7.44944 40.991 8.73462 41.9368 10.2074 42.447C13.6968 50.844 20.7026 57 29.1579 57H37.2105V51.6H29.1579C23.0916 51.6 17.5889 47.01 14.8242 39.747L14.2605 38.262L12.6768 38.1C12.0319 38.0083 11.4421 37.6838 11.0174 37.1871C10.5927 36.6903 10.362 36.0552 10.3684 35.4C10.3712 34.9288 10.4966 34.4666 10.7321 34.0592C10.9675 33.6519 11.3048 33.3136 11.7105 33.078L13.0526 32.295V27.3C13.0526 26.5839 13.3354 25.8972 13.8388 25.3908C14.3422 24.8845 15.0249 24.6 15.7368 24.6H42.5789C43.2908 24.6 43.9736 24.8845 44.477 25.3908C44.9804 25.8972 45.2632 26.5839 45.2632 27.3V40.8H34.2847C34.0411 40.1127 33.6173 39.5043 33.0582 39.0393C32.4991 38.5742 31.8255 38.2698 31.1086 38.1581C30.3917 38.0464 29.6581 38.1316 28.9853 38.4047C28.3126 38.6779 27.7257 39.1288 27.2867 39.7098C26.8478 40.2907 26.573 40.9803 26.4915 41.7054C26.41 42.4305 26.5248 43.1643 26.8237 43.8292C27.1227 44.4941 27.5947 45.0654 28.1898 45.4827C28.7849 45.9001 29.4811 46.1479 30.2047 46.2H50.6316C52.0554 46.2 53.4209 45.6311 54.4276 44.6184C55.4344 43.6057 56 42.2322 56 40.8V35.4C56 33.9678 55.4344 32.5943 54.4276 31.5816C53.4209 30.5689 52.0554 30 50.6316 30V24.6C50.6316 18.8713 48.3692 13.3773 44.3421 9.32649C40.315 5.27571 34.8531 3 29.1579 3Z"
            fill="white" />
    </g>
    <defs>
        <clipPath id="clip0_39_87">
            <rect width="60" height="60" fill="white" transform="translate(0.5)" />
        </clipPath>
    </defs>
</svg>