<svg width="45" height="45" viewBox="0 0 45 45" fill="none" xmlns="http://www.w3.org/2000/svg">
<path fill-rule="evenodd" clip-rule="evenodd" d="M13.687 19.8379C11.7366 20.1922 9.9239 21.133 8.50218 22.5547C6.6614 24.3955 5.62781 26.8916 5.62781 29.4946V35.1744C5.62781 37.5046 7.5164 39.3932 9.84656 39.3932C15.7303 39.3932 29.2753 39.3932 35.1591 39.3932C37.4892 39.3932 39.3778 37.5046 39.3778 35.1744V29.4946C39.3778 26.8916 38.3442 24.3955 36.5034 22.5547C35.0817 21.133 33.2691 20.1922 31.3186 19.8379C31.9767 18.5174 32.3466 17.0296 32.3466 15.4546C32.3466 10.0222 27.9352 5.61084 22.5028 5.61084C17.0705 5.61084 12.6591 10.0222 12.6591 15.4546C12.6591 17.0296 13.0289 18.5174 13.687 19.8379ZM30.9319 22.6279V25.5515C32.5687 26.1308 33.7444 27.6946 33.7444 29.5312C33.7444 31.0794 33.75 32.3366 33.75 32.3366C33.7542 33.1129 33.127 33.7457 32.3508 33.7499C31.5745 33.7527 30.9417 33.1255 30.9375 32.3507C30.9375 32.3507 30.9319 31.0865 30.9319 29.5312C30.9319 28.7549 30.3047 28.1249 29.5298 28.1249C28.755 28.1249 28.1278 28.7549 28.1278 29.5312L28.125 32.3451C28.1236 33.1213 27.4936 33.7513 26.7173 33.7499C25.9411 33.7485 25.3111 33.1185 25.3125 32.3422C25.3125 32.3422 25.3153 29.5297 25.3153 29.5312C25.3153 27.6974 26.4867 26.1365 28.1194 25.5543V23.5391C26.5261 24.6487 24.5897 25.2983 22.5028 25.2983C20.4089 25.2983 18.4655 24.643 16.8694 23.5265V25.5529C18.5077 26.1322 19.6819 27.696 19.6819 29.5312C19.6819 31.8599 17.7919 33.7499 15.4631 33.7499C13.1344 33.7499 11.2444 31.8599 11.2444 29.5312C11.2444 27.696 12.4186 26.1322 14.0569 25.5529V22.6307C12.7153 22.9021 11.4736 23.5616 10.492 24.5432C9.17859 25.8566 8.44031 27.6383 8.44031 29.4946V35.1744C8.44031 35.9507 9.07031 36.5807 9.84656 36.5807H35.1591C35.9353 36.5807 36.5653 35.9507 36.5653 35.1744V29.4946C36.5653 27.6383 35.827 25.8566 34.515 24.5432C33.5292 23.5574 32.2791 22.8965 30.9319 22.6279ZM15.4631 28.1249C16.2394 28.1249 16.8694 28.7549 16.8694 29.5312C16.8694 30.3074 16.2394 30.9374 15.4631 30.9374C14.6869 30.9374 14.0569 30.3074 14.0569 29.5312C14.0569 28.7549 14.6869 28.1249 15.4631 28.1249ZM22.5028 8.42334C26.3841 8.42334 29.5341 11.5747 29.5341 15.4546C29.5341 19.3358 26.3841 22.4858 22.5028 22.4858C18.6216 22.4858 15.4716 19.3358 15.4716 15.4546C15.4716 11.5747 18.6216 8.42334 22.5028 8.42334Z" fill="#EF7907"/>
</svg>
