<svg width="45" height="45" viewBox="0 0 45 45" fill="none" xmlns="http://www.w3.org/2000/svg">
    <g clipPath="url(#clip0_10_22)">
        <path
            d="M20.6131 14.3336C23.0098 14.3336 24.9535 12.3903 24.9535 9.99276C24.9535 7.59526 23.0099 5.65173 20.6131 5.65173C18.2149 5.65173 16.2714 7.59526 16.2714 9.99276C16.2714 12.3903 18.2149 14.3336 20.6131 14.3336Z"
            fill="white" />
        <path
            d="M24.7954 6.36634C24.9041 6.47493 25.0475 6.52927 25.1893 6.52927C25.3314 6.52927 25.4746 6.47493 25.5819 6.36634L29.9526 1.99714C30.1699 1.77987 30.1712 1.42801 29.9541 1.21074C29.7369 0.993556 29.382 0.993556 29.1677 1.21074L24.797 5.58003C24.5797 5.79721 24.5783 6.14915 24.7954 6.36634Z"
            fill="white" />
        <path
            d="M23.8846 5.41787C23.9658 5.46063 24.054 5.48087 24.141 5.48087C24.3409 5.48087 24.5349 5.37155 24.6349 5.18108L26.907 0.811794C27.049 0.53954 26.9419 0.203553 26.6696 0.0624109C26.4047 -0.0780927 26.0642 0.0262136 25.9194 0.299197L23.6472 4.6684C23.5052 4.94074 23.6124 5.27664 23.8846 5.41787Z"
            fill="white" />
        <path
            d="M25.7441 7.27808C25.844 7.46846 26.0381 7.57787 26.2379 7.57787C26.3248 7.57787 26.4131 7.55754 26.4943 7.51487L30.8649 5.24265C31.1372 5.10142 31.2443 4.76552 31.1023 4.49318C30.959 4.21946 30.6201 4.11452 30.3521 4.25639L25.9815 6.52861C25.7093 6.66984 25.6022 7.00583 25.7441 7.27808Z"
            fill="white" />
        <path
            d="M36.1116 8.07061L28.9823 9.17823C28.5102 9.25126 28.1611 9.65827 28.1611 10.1368V11.5475C28.1611 12.026 28.5102 12.4331 28.9823 12.5062L29.6615 12.6117V14.5851C29.6615 14.8681 29.7599 15.1187 29.8949 15.3463L28.1799 17.7509L26.1322 16.37C25.4413 15.9051 24.5928 15.719 23.805 15.6668L17.1766 15.7023L12.7668 13.6835L9.89796 7.55537C9.46496 6.62637 8.36281 6.22884 7.43308 6.66184C6.50627 7.09629 6.10655 8.19981 6.5411 9.12671L9.6981 15.871C9.88346 16.2692 10.205 16.5878 10.6047 16.771L15.8354 19.1662V43.0051C15.8354 44.1072 16.7291 45 17.8298 45C18.9317 45 19.8254 44.1072 19.8254 43.0051V31.0843H21.4009V43.0052C21.4009 44.1066 22.2946 44.9994 23.3951 44.9994C24.4973 44.9994 25.3893 44.1066 25.3893 43.0052V20.3407L27.6036 21.8339C27.9222 22.0483 28.2828 22.1512 28.639 22.1512C29.2183 22.1512 29.7888 21.8804 30.1494 21.3735L33.4209 16.7857C33.5925 16.5455 33.6806 16.2781 33.7247 16.0054C34.3065 15.7898 34.7272 15.2409 34.7272 14.5851V13.3987L36.1117 13.6138C35.7282 12.6314 35.6687 11.3906 35.6687 10.8421C35.6687 10.2937 35.7281 9.05304 36.1116 8.07061ZM33.615 14.585C33.615 14.6744 33.5683 14.7468 33.5199 14.8146C33.3901 14.5806 33.2205 14.3663 32.988 14.2005C32.2988 13.7074 31.4042 13.7824 30.7736 14.2862V12.7845L33.615 13.2258V14.585Z"
            fill="white" />
        <path
            d="M37.7078 7.82251C37.1964 7.82251 36.7809 9.17439 36.7809 10.8419C36.7809 12.5096 37.1964 13.8615 37.7078 13.8615C38.219 13.8615 38.6346 12.5095 38.6346 10.8419C38.6346 9.17439 38.219 7.82251 37.7078 7.82251Z"
            fill="white" />
    </g>
    <defs>
        <clipPath id="clip0_10_22">
            <rect width="45" height="45" fill="white" />
        </clipPath>
    </defs>
</svg>