<svg width="60" height="60" viewBox="0 0 60 60" fill="none" xmlns="http://www.w3.org/2000/svg">
    <path
        d="M14.7 49.0032L7.75316 38.55C7.67067 38.4265 7.61345 38.2879 7.58482 38.1421C7.55619 37.9964 7.5567 37.8464 7.58634 37.7008C7.61597 37.5553 7.67414 37.417 7.75748 37.2941C7.84082 37.1711 7.94769 37.0659 8.07191 36.9844L12.4594 34.1719C12.7051 34.0146 13.0019 33.9581 13.2883 34.0139C13.5746 34.0698 13.8284 34.2338 13.9969 34.4719L21.0844 44.7844C21.1678 44.9068 21.2262 45.0445 21.2563 45.1895C21.2863 45.3345 21.2874 45.4841 21.2596 45.6295C21.2317 45.775 21.1754 45.9135 21.0938 46.0372C21.0123 46.1608 20.9071 46.2671 20.7844 46.35L16.2657 49.3125C16.1427 49.3955 16.0045 49.4533 15.8592 49.4826C15.7138 49.512 15.564 49.5123 15.4185 49.4835C15.273 49.4548 15.1346 49.3975 15.0113 49.3151C14.888 49.2327 14.7822 49.1266 14.7 49.0032Z"
        stroke="white" strokeWidth="2.5" strokeLinecap="round" />
    <path
        d="M14.7749 35.5313L22.0874 30.9375C22.3217 30.7888 22.584 30.6897 22.8581 30.6462C23.1322 30.6026 23.4123 30.6156 23.6812 30.6844C26.278 31.35 34.0874 33.4969 36.9655 34.5094C39.1312 35.2688 40.003 37.4063 39.1312 38.8125C37.9499 40.6875 36.1499 40.5094 34.8562 40.1437L34.3405 39.9562L29.2218 37.7719"
        stroke="white" strokeWidth="2.5" strokeLinecap="round" />
    <path
        d="M20.4468 43.8282L22.8374 42.4594L36.3655 46.2094C36.5043 46.2487 36.65 46.2573 36.7925 46.2347C36.935 46.212 37.0708 46.1586 37.1905 46.0782C39.0655 44.8594 47.2312 39.4594 51.253 36.6188C51.5791 36.4379 51.8551 36.1787 52.0562 35.8647C52.2573 35.5506 52.3772 35.1915 52.4051 34.8196C52.4329 34.4478 52.368 34.0748 52.216 33.7343C52.064 33.3937 51.8297 33.0963 51.5343 32.8688C51.0663 32.4473 50.4741 32.1893 49.8469 32.1335C49.2196 32.0777 48.5911 32.2272 48.0562 32.5594C46.6499 33.3469 42.7405 36.2532 42.7405 36.2532"
        stroke="white" strokeWidth="2.5" strokeLinecap="round" />
    <path
        d="M41.3624 13.5374C40.9197 12.5177 40.1847 11.6519 39.2503 11.0496C38.3159 10.4472 37.224 10.1352 36.1124 10.1531C31.378 10.1531 31.1999 13.5374 31.1999 13.5374C31.1999 13.5374 30.4874 17.7187 36.2812 18.1593C42.3093 18.6187 41.3624 22.7812 41.3624 22.7812C41.3624 22.7812 40.753 26.3999 36.2812 26.6249C31.8093 26.8499 30.4312 22.1624 30.4312 22.1624"
        stroke="white" strokeWidth="2.5" />
    <path d="M36.1125 7.1438V30.0938" stroke="white" strokeWidth="2.5" />
</svg>