<svg width="45" height="45" viewBox="0 0 45 45" fill="none" xmlns="http://www.w3.org/2000/svg">
<path d="M23.0251 20.3873C21.6192 20.3725 20.2491 19.9421 19.0873 19.1502C17.9255 18.3584 17.024 17.2405 16.4962 15.9374C15.9684 14.6342 15.8379 13.204 16.1213 11.8269C16.4046 10.4497 17.089 9.18721 18.0884 8.19825C19.0878 7.20929 20.3574 6.53811 21.7374 6.26922C23.1175 6.00032 24.5462 6.14573 25.8438 6.68714C27.1413 7.22855 28.2497 8.14175 29.0293 9.31177C29.809 10.4818 30.225 11.8563 30.2251 13.2623C30.2119 15.1609 29.4467 16.9768 28.0971 18.3123C26.7476 19.6478 24.9237 20.394 23.0251 20.3873ZM23.0251 8.6373C22.1137 8.65208 21.227 8.93585 20.4763 9.45295C19.7257 9.97006 19.1446 10.6974 18.806 11.5437C18.4674 12.39 18.3865 13.3175 18.5733 14.2097C18.7601 15.1019 19.2064 15.9189 19.8561 16.5583C20.5058 17.1976 21.33 17.6307 22.225 17.8032C23.1201 17.9756 24.0462 17.8798 24.8869 17.5276C25.7276 17.1755 26.4456 16.5827 26.9506 15.8238C27.4555 15.065 27.725 14.1738 27.7251 13.2623C27.7119 12.0268 27.2101 10.8467 26.3294 9.98003C25.4487 9.11338 24.2607 8.63063 23.0251 8.6373Z" fill="#FFC72C"/>
<path d="M23.0251 20.3873C21.6192 20.3725 20.2491 19.9421 19.0873 19.1502C17.9255 18.3584 17.024 17.2405 16.4962 15.9374C15.9684 14.6342 15.8379 13.204 16.1213 11.8269C16.4046 10.4497 17.089 9.18721 18.0884 8.19825C19.0878 7.20929 20.3574 6.53811 21.7374 6.26922C23.1175 6.00032 24.5462 6.14573 25.8438 6.68714C27.1413 7.22855 28.2497 8.14175 29.0293 9.31177C29.809 10.4818 30.225 11.8563 30.2251 13.2623C30.2119 15.1609 29.4467 16.9768 28.0971 18.3123C26.7476 19.6478 24.9237 20.394 23.0251 20.3873ZM23.0251 8.6373C22.1137 8.65208 21.227 8.93585 20.4763 9.45295C19.7257 9.97006 19.1446 10.6974 18.806 11.5437C18.4674 12.39 18.3865 13.3175 18.5733 14.2097C18.7601 15.1019 19.2064 15.9189 19.8561 16.5583C20.5058 17.1976 21.33 17.6307 22.225 17.8032C23.1201 17.9756 24.0462 17.8798 24.8869 17.5276C25.7276 17.1755 26.4456 16.5827 26.9506 15.8238C27.4555 15.065 27.725 14.1738 27.7251 13.2623C27.7119 12.0268 27.2101 10.8467 26.3294 9.98003C25.4487 9.11338 24.2607 8.63063 23.0251 8.6373Z" fill="#FFC72C"/>
<path d="M27.3876 22.0624C21.8433 21.0976 16.1356 21.9757 11.1376 24.5624C10.7828 24.7594 10.4891 25.0502 10.2884 25.4029C10.0878 25.7556 9.98808 26.1568 10.0001 26.5624V31.0124C10.0001 31.3439 10.1318 31.6619 10.3662 31.8963C10.6007 32.1307 10.9186 32.2624 11.2501 32.2624C11.5816 32.2624 11.8996 32.1307 12.134 31.8963C12.3684 31.6619 12.5001 31.3439 12.5001 31.0124V26.7249C17.1347 24.3994 22.4051 23.6616 27.5001 24.6249L27.3876 22.0624Z" fill="#FFC72C"/>
<path d="M41.2501 27.4999H32.8751V25.6499C32.8751 25.3184 32.7434 25.0004 32.509 24.766C32.2746 24.5316 31.9566 24.3999 31.6251 24.3999C31.2936 24.3999 30.9757 24.5316 30.7412 24.766C30.5068 25.0004 30.3751 25.3184 30.3751 25.6499V27.4999H21.2501C20.9186 27.4999 20.6007 27.6316 20.3662 27.866C20.1318 28.1004 20.0001 28.4184 20.0001 28.7499V41.2499C20.0001 41.5814 20.1318 41.8994 20.3662 42.1338C20.6007 42.3682 20.9186 42.4999 21.2501 42.4999H41.2501C41.5816 42.4999 41.8996 42.3682 42.134 42.1338C42.3684 41.8994 42.5001 41.5814 42.5001 41.2499V28.7499C42.5001 28.4184 42.3684 28.1004 42.134 27.866C41.8996 27.6316 41.5816 27.4999 41.2501 27.4999ZM40.0001 39.9999H22.5001V29.9999H30.3751V30.5124C30.3751 30.8439 30.5068 31.1619 30.7412 31.3963C30.9757 31.6307 31.2936 31.7624 31.6251 31.7624C31.9566 31.7624 32.2746 31.6307 32.509 31.3963C32.7434 31.1619 32.8751 30.8439 32.8751 30.5124V29.9999H40.0001V39.9999Z" fill="#FFC72C"/>
<path d="M34.7126 34.2749H27.2626V36.0249H34.7126V34.2749Z" fill="#FFC72C"/>
<path d="M13.5501 15.2998C10.0894 15.3577 6.68874 16.2132 3.61262 17.7998C3.27807 17.9765 2.99784 18.2408 2.80189 18.5645C2.60594 18.8881 2.50163 19.259 2.50012 19.6373V23.5123C2.50012 23.8438 2.63182 24.1618 2.86624 24.3962C3.10066 24.6306 3.4186 24.7623 3.75012 24.7623C4.08164 24.7623 4.39959 24.6306 4.63401 24.3962C4.86843 24.1618 5.00012 23.8438 5.00012 23.5123V19.8873C7.93925 18.4243 11.1933 17.7074 14.4751 17.7998C14.0457 17.0164 13.7341 16.174 13.5501 15.2998Z" fill="#FFC72C"/>
<path d="M41.3876 17.7874C38.6287 16.3401 35.5965 15.4884 32.4876 15.2874C32.3045 16.16 31.9972 17.0019 31.5751 17.7874C34.5039 17.8575 37.381 18.5746 40.0001 19.8874V23.5124C40.0001 23.8439 40.1318 24.1618 40.3662 24.3962C40.6006 24.6307 40.9186 24.7624 41.2501 24.7624C41.5816 24.7624 41.8995 24.6307 42.134 24.3962C42.3684 24.1618 42.5001 23.8439 42.5001 23.5124V19.6374C42.5008 19.2569 42.3976 18.8834 42.2015 18.5574C42.0055 18.2313 41.724 17.9651 41.3876 17.7874Z" fill="#FFC72C"/>
<path d="M13.3251 13.2624C13.3251 12.9749 13.3251 12.6999 13.3251 12.4249C12.3459 12.2939 11.4549 11.7902 10.8377 11.0188C10.2205 10.2473 9.92456 9.26759 10.0115 8.28347C10.0985 7.29935 10.5617 6.38668 11.3046 5.73547C12.0476 5.08425 13.0131 4.74467 14.0001 4.7874C15.0268 4.78554 16.0135 5.18473 16.7501 5.8999C17.4 5.36387 18.1138 4.91042 18.8751 4.5499C18.0246 3.57197 16.8978 2.8747 15.6431 2.54999C14.3884 2.22527 13.0648 2.28837 11.8467 2.73095C10.6286 3.17353 9.57315 3.97482 8.81953 5.02921C8.06592 6.08361 7.64949 7.3416 7.62512 8.6374C7.65135 10.2233 8.26787 11.7425 9.35425 12.8983C10.4406 14.054 11.9188 14.7632 13.5001 14.8874C13.3941 14.3519 13.3355 13.8082 13.3251 13.2624Z" fill="#FFC72C"/>
<path d="M30.9626 2.2874C30.1036 2.28759 29.2532 2.45904 28.4613 2.79171C27.6693 3.12438 26.9516 3.61161 26.3501 4.2249C27.1952 4.53112 27.9943 4.9517 28.7251 5.4749C29.3087 5.06981 29.9912 4.83069 30.7 4.78304C31.4088 4.73538 32.1172 4.88098 32.7497 5.20431C33.3823 5.52763 33.9152 6.01656 34.2917 6.61896C34.6682 7.22136 34.8742 7.91465 34.8876 8.6249C34.8797 9.35445 34.6654 10.0668 34.2694 10.6796C33.8734 11.2924 33.312 11.7805 32.6501 12.0874C32.7004 12.4729 32.7254 12.8612 32.7251 13.2499C32.7218 13.7524 32.68 14.2538 32.6001 14.7499C33.9618 14.3998 35.1696 13.6094 36.0355 12.5016C36.9014 11.3938 37.3767 10.0309 37.3876 8.6249C37.3711 6.93403 36.6861 5.31841 35.4823 4.13095C34.2784 2.94349 32.6535 2.28072 30.9626 2.2874Z" fill="#FFC72C"/>
</svg>
