<svg width="25" height="24" viewBox="0 0 25 24" fill="none" xmlns="http://www.w3.org/2000/svg">
    <path
        d="M3.79102 8L9.24094 11.6333C10.524 12.4886 11.1655 12.9163 11.8588 13.0825C12.4716 13.2293 13.1104 13.2293 13.7232 13.0825C14.4165 12.9163 15.0581 12.4886 16.3411 11.6333L21.791 8M6.99102 19H18.591C19.7111 19 20.2712 19 20.699 18.782C21.0753 18.5903 21.3813 18.2843 21.573 17.908C21.791 17.4802 21.791 16.9201 21.791 15.8V8.2C21.791 7.0799 21.791 6.51984 21.573 6.09202C21.3813 5.71569 21.0753 5.40973 20.699 5.21799C20.2712 5 19.7111 5 18.591 5H6.99102C5.87092 5 5.31086 5 4.88304 5.21799C4.50671 5.40973 4.20075 5.71569 4.00901 6.09202C3.79102 6.51984 3.79102 7.07989 3.79102 8.2V15.8C3.79102 16.9201 3.79102 17.4802 4.00901 17.908C4.20075 18.2843 4.50671 18.5903 4.88304 18.782C5.31086 19 5.87091 19 6.99102 19Z"
        stroke="#0097B2" strokeWidth="1.8" strokeLinecap="round" strokeLinejoin="round" />
</svg>