<svg width="45" height="45" viewBox="0 0 45 45" fill="none" xmlns="http://www.w3.org/2000/svg">
    <path
        d="M18.5355 8.39383C21.6025 8.47805 24.6064 8.41158 27.5472 8.19443C31.9585 7.86868 36.6961 7.86868 36.6961 8.62698C36.6961 9.38528 36.6961 11.4271 36.6961 12.6468C36.6961 13.8666 36.6961 25.2662 36.6961 26.1672C36.6961 27.0682 36.2044 27.0682 34.9552 27.0682C33.706 27.0682 18.8727 27.7662 18.046 27.0682C17.2195 26.3703 17.4184 15.1761 17.4184 14.1605C17.4184 13.145 17.4184 11.7795 17.4184 11.0138"
        stroke="white" strokeWidth="2.4" strokeLinecap="round" strokeLinejoin="round" />
    <path d="M9.39221 18.1222C12.904 18.1464 15.5131 18.0889 17.2197 17.9497" stroke="white"
        strokeWidth="2.4" strokeLinecap="round" strokeLinejoin="round" />
    <path
        d="M27.7158 27.3438C27.7158 30.9636 27.7158 35.236 27.7158 35.7734C27.7158 36.6745 27.2219 36.6745 25.9667 36.6745C24.7115 36.6745 9.80733 37.3725 8.97677 36.6745C8.1462 35.9764 8.34613 24.7809 8.34613 23.7652C8.34613 22.7496 8.34613 21.384 8.34613 20.6182"
        stroke="white" strokeWidth="2.4" strokeLinecap="round" strokeLinejoin="round" />
    <path opacity="0.503384"
        d="M20.0662 17.7772C24.0101 17.4885 27.7158 17.4885 27.7158 18.1606C27.7158 18.8327 27.7158 20.6424 27.7158 21.7234C27.7158 22.0916 27.7158 23.5063 27.7158 25.2435"
        stroke="white" strokeWidth="1.8" strokeLinecap="round" strokeLinejoin="round" />
</svg>