<svg width="45" height="45" viewBox="0 0 45 45" fill="none" xmlns="http://www.w3.org/2000/svg">
<path d="M42.029 37.7059L33.9843 42.1059C33.5821 42.3647 32.9788 42.3647 32.5765 42.1059L24.5989 37.7059C24.2637 37.5118 24.2637 37.1235 24.5989 36.9941L26.476 35.9588C26.61 35.8941 26.7441 35.8941 26.8782 35.9588L31.7721 38.6118C32.2413 38.8706 32.7776 39 33.314 39C33.8503 39 34.3866 38.8706 34.8559 38.6118L39.7497 35.9588C39.8838 35.8941 40.0179 35.8941 40.1519 35.9588L42.029 36.9941C42.3642 37.1235 42.3642 37.5118 42.029 37.7059ZM42.029 32.7235L33.9843 37.1235C33.5821 37.3824 32.9788 37.3824 32.5765 37.1235L24.5989 32.7235C24.2637 32.5294 24.2637 32.1412 24.5989 32.0118L26.476 30.9765C26.61 30.9118 26.7441 30.9118 26.8782 30.9765L31.7721 33.6294C32.2413 33.8882 32.7776 34.0176 33.314 34.0176C33.8503 34.0176 34.3866 33.8882 34.8559 33.6294L39.7497 30.9765C39.8838 30.9118 40.0179 30.9118 40.1519 30.9765L42.029 32.0118C42.3642 32.1412 42.3642 32.5294 42.029 32.7235ZM32.6436 32.2059L24.5989 27.8059C24.2637 27.6118 24.2637 27.2235 24.5989 27.0941L32.6436 22.6941C33.0458 22.4353 33.6491 22.4353 34.0514 22.6941L42.0961 27.0941C42.4313 27.2882 42.4313 27.6765 42.0961 27.8059L34.0514 32.2059C33.6491 32.4 33.0458 32.4 32.6436 32.2059Z" fill="#0097B2"/>
<path d="M23.8788 29.5655C24.2136 29.3665 24.2136 28.9685 23.8788 28.8358L22.0043 27.7745H21.9373V26.9121C21.9373 26.9121 21.9373 25.7844 22.9416 25.1874C23.2094 25.0547 23.7449 24.7894 24.3475 24.4577C24.0797 24.3251 23.8119 24.1924 23.5441 24.126C22.339 23.529 20.5984 22.932 20.0628 21.4063C19.7281 20.6103 19.9289 19.748 20.3306 19.0183C21.067 18.2886 21.7365 17.6252 22.339 16.6966C22.4729 16.4312 22.6068 16.2986 22.7407 16.0332C24.4144 13.6452 24.6153 10.3948 23.678 7.67505C22.6738 4.75633 20.0628 2.76629 16.8493 2.69995H16.3807C13.1672 2.76629 10.4893 4.75633 9.55199 7.67505C8.54777 10.4611 8.81556 13.6452 10.4893 16.0332C10.5562 16.2986 10.757 16.4312 10.8909 16.6966C11.4935 17.6252 12.2299 18.2223 12.8994 19.0183C13.2341 19.748 13.368 20.544 13.1672 21.4063C12.6985 22.8657 10.9579 23.529 9.68588 24.126C6.87407 25.3201 3.39278 27.0448 2.8572 30.4278C2.25467 33.2139 4.19616 36 7.14186 36H21.9373L23.8788 34.7396C24.2136 34.5406 24.2136 34.1426 23.8788 34.0099L22.0043 32.9486H21.9373V30.8258L23.8788 29.5655Z" fill="#0097B2"/>
</svg>
