<svg width="61" height="60" viewBox="0 0 61 60" fill="none" xmlns="http://www.w3.org/2000/svg">
<path d="M50.8175 24.0418C50.7326 23.9994 50.4993 23.9994 50.4144 23.957C50.3296 23.9146 50.0114 23.9146 49.8629 23.9146C48.9509 23.9146 48.2933 24.2751 47.9327 24.9115L43.0965 32.887L37.0088 32.9931C36.0118 32.9931 35.1634 33.7991 35.1634 34.8385C35.1634 35.1142 35.227 35.3688 35.3331 35.6021H25.5758C25.6819 35.3688 25.7455 35.1142 25.7455 34.8385C25.7455 33.7991 24.897 32.9931 23.9001 32.9931H17.8124L12.9762 24.9115C12.6156 24.2751 11.9368 23.9146 11.0459 23.9146C10.9187 23.9146 10.6005 23.9146 10.4944 23.957C10.4096 23.9994 10.1763 23.9994 10.0914 24.0418C3.89765 25.463 3.87644 38.6777 3.91886 41.2019C3.91886 43.514 4.7249 44.5321 6.40061 45.1685C6.80362 45.3594 7.3127 45.4442 7.71572 45.4442H18.3639V54.65C18.3639 56.0075 19.4032 57.0469 20.7608 57.0469C22.1183 57.0469 23.1577 56.0075 23.1577 54.65V43.1322C23.1577 42.4958 22.8819 41.817 22.4365 41.414C21.9486 40.9262 21.3123 40.6504 20.7184 40.6504H13.6125V35.3263L9.92171 29.0477C9.73081 28.772 9.83687 28.4538 10.049 28.3265C10.3247 28.1356 10.6429 28.2417 10.7702 28.4538L15.0549 35.7294C15.0761 35.7718 15.1185 35.8142 15.1397 35.8778V39.208H45.7691V35.8778C45.8116 35.8354 45.8328 35.793 45.854 35.7294L50.1387 28.4538C50.266 28.2205 50.5841 28.1356 50.8599 28.3265C51.0932 28.4538 51.1781 28.772 50.9872 29.0477L47.2964 35.3263V40.6504H40.2117C39.6178 40.6504 39.0027 40.9262 38.4936 41.414C38.0481 41.817 37.7724 42.4958 37.7724 43.1322V54.65C37.7724 56.0075 38.8118 57.0469 40.1693 57.0469C41.5268 57.0469 42.5662 56.0075 42.5662 54.65V45.4442H53.2144C53.6174 45.4442 54.1265 45.3594 54.5295 45.1685C56.2052 44.5321 57.0112 43.514 57.0112 41.2019C57.0536 38.699 57.0324 25.463 50.8175 24.0418Z" fill="white"/>
<path d="M50.4649 20.0163C50.754 17.6676 49.0845 15.5293 46.7359 15.2401C44.3872 14.9509 42.2489 16.6205 41.9597 18.9691C41.6705 21.3177 43.34 23.4561 45.6887 23.7453C48.0373 24.0344 50.1757 22.3649 50.4649 20.0163Z" fill="white"/>
<path d="M18.47 21.5127C19.5867 19.4262 18.8005 16.8296 16.7141 15.7129C14.6276 14.5962 12.031 15.3823 10.9143 17.4687C9.7976 19.5552 10.5837 22.1518 12.6702 23.2685C14.7566 24.3852 17.3533 23.5991 18.47 21.5127Z" fill="white"/>
<path d="M30.4967 18.845C34.8663 18.845 38.4298 15.2815 38.4298 10.9119C38.4298 6.54232 34.8663 3 30.4967 3C26.1271 3 22.5636 6.56353 22.5636 10.9331C22.5636 15.3027 26.1271 18.845 30.4967 18.845ZM29.7755 7.07261V6.03324H31.1543V7.11503C32.0239 7.28472 32.6391 7.68774 33.1057 8.02712L32.1512 9.13012C31.8542 8.89679 31.3027 8.57862 30.7937 8.47256C30.1361 8.32408 29.4149 8.49378 29.3725 9.15133C29.3513 9.42708 29.4785 9.93616 30.9209 10.3392C31.6845 10.5513 33.4663 11.0179 33.4663 12.6937C33.4663 13.8179 32.4906 14.7087 31.1755 14.8572V15.8117H29.7967V14.7936C29.0755 14.6451 28.3968 14.3269 27.7604 13.8179L28.7998 12.7785C28.7998 12.7785 29.5634 13.3724 30.2846 13.4785C31.1118 13.5845 31.5997 13.2451 31.6633 12.7785C31.7694 11.9088 29.8604 11.5907 29.1816 11.2513C28.3543 10.8483 27.5483 10.318 27.5483 9.19375C27.5271 8.02712 28.4392 7.17866 29.7755 7.07261Z" fill="white"/>
</svg>
