<svg width="60" height="60" viewBox="0 0 60 60" fill="none" xmlns="http://www.w3.org/2000/svg">
<path d="M30 14.8125H33.375C33.8226 14.8125 34.2518 14.6347 34.5682 14.3182C34.8847 14.0018 35.0625 13.5726 35.0625 13.125C35.0625 12.6774 34.8847 12.2482 34.5682 11.9318C34.2518 11.6153 33.8226 11.4375 33.375 11.4375H31.6875C31.6875 10.9899 31.5097 10.5607 31.1932 10.2443C30.8768 9.92779 30.4476 9.75 30 9.75C29.5524 9.75 29.1232 9.92779 28.8068 10.2443C28.4903 10.5607 28.3125 10.9899 28.3125 11.4375V11.7412C27.1964 12.1462 26.2582 12.9306 25.6618 13.9572C25.0654 14.9838 24.8488 16.1873 25.0499 17.3574C25.2509 18.5276 25.8568 19.5898 26.7617 20.3584C27.6665 21.1271 28.8128 21.5533 30 21.5625C30.4476 21.5625 30.8768 21.7403 31.1932 22.0568C31.5097 22.3732 31.6875 22.8024 31.6875 23.25C31.6875 23.6976 31.5097 24.1268 31.1932 24.4432C30.8768 24.7597 30.4476 24.9375 30 24.9375H26.625C26.1774 24.9375 25.7482 25.1153 25.4318 25.4318C25.1153 25.7482 24.9375 26.1774 24.9375 26.625C24.9375 27.0726 25.1153 27.5018 25.4318 27.8182C25.7482 28.1347 26.1774 28.3125 26.625 28.3125H28.3125C28.3125 28.7601 28.4903 29.1893 28.8068 29.5057C29.1232 29.8222 29.5524 30 30 30C30.4476 30 30.8768 29.8222 31.1932 29.5057C31.5097 29.1893 31.6875 28.7601 31.6875 28.3125V28.0087C32.8036 27.6038 33.7418 26.8194 34.3382 25.7928C34.9346 24.7662 35.1512 23.5627 34.9501 22.3926C34.7491 21.2224 34.1432 20.1602 33.2383 19.3916C32.3335 18.6229 31.1872 18.1967 30 18.1875C29.5524 18.1875 29.1232 18.0097 28.8068 17.6932C28.4903 17.3768 28.3125 16.9476 28.3125 16.5C28.3125 16.0524 28.4903 15.6232 28.8068 15.3068C29.1232 14.9903 29.5524 14.8125 30 14.8125Z" fill="white"/>
<path d="M55.3125 43.5H50.25V8.0625C50.25 6.71984 49.7166 5.43217 48.7672 4.48277C47.8178 3.53337 46.5302 3 45.1875 3L8.0625 3C6.71984 3 5.43217 3.53337 4.48277 4.48277C3.53337 5.43217 3 6.71984 3 8.0625L3 18.1875C3 18.6351 3.17779 19.0643 3.49426 19.3807C3.81072 19.6972 4.23995 19.875 4.6875 19.875H9.75V51.9375C9.75 53.2802 10.2834 54.5678 11.2328 55.5172C12.1822 56.4666 13.4698 57 14.8125 57H51.9375C53.2802 57 54.5678 56.4666 55.5172 55.5172C56.4666 54.5678 57 53.2802 57 51.9375V45.1875C57 44.7399 56.8222 44.3107 56.5057 43.9943C56.1893 43.6778 55.7601 43.5 55.3125 43.5ZM6.375 8.0625C6.375 7.61495 6.55279 7.18572 6.86926 6.86926C7.18572 6.55279 7.61495 6.375 8.0625 6.375C8.51005 6.375 8.93928 6.55279 9.25574 6.86926C9.57221 7.18572 9.75 7.61495 9.75 8.0625V16.5H6.375V8.0625ZM16.5 45.1875V51.9375C16.4969 52.162 16.449 52.3835 16.3592 52.5893C16.2694 52.795 16.1394 52.9808 15.9769 53.1356C15.8273 53.2934 15.6465 53.4184 15.4461 53.5026C15.2457 53.5869 15.0299 53.6285 14.8125 53.625C14.3649 53.625 13.9357 53.4472 13.6193 53.1307C13.3028 52.8143 13.125 52.3851 13.125 51.9375V8.0625C13.1204 7.48682 13.0177 6.91614 12.8212 6.375H45.1875C45.6351 6.375 46.0643 6.55279 46.3807 6.86926C46.6972 7.18572 46.875 7.61495 46.875 8.0625V43.5H18.1875C17.7399 43.5 17.3107 43.6778 16.9943 43.9943C16.6778 44.3107 16.5 44.7399 16.5 45.1875ZM53.625 51.9375C53.6219 52.162 53.574 52.3835 53.4842 52.5893C53.3944 52.795 53.2644 52.9808 53.1019 53.1356C52.9523 53.2934 52.7715 53.4184 52.5711 53.5026C52.3707 53.5869 52.1549 53.6285 51.9375 53.625H19.5881C19.7788 53.0829 19.8759 52.5122 19.875 51.9375V46.875H53.625V51.9375Z" fill="white"/>
<path d="M31.6875 35.0625H18.1875C17.7399 35.0625 17.3107 35.2403 16.9943 35.5568C16.6778 35.8732 16.5 36.3024 16.5 36.75C16.5 37.1976 16.6778 37.6268 16.9943 37.9432C17.3107 38.2597 17.7399 38.4375 18.1875 38.4375H31.6875C32.1351 38.4375 32.5643 38.2597 32.8807 37.9432C33.1972 37.6268 33.375 37.1976 33.375 36.75C33.375 36.3024 33.1972 35.8732 32.8807 35.5568C32.5643 35.2403 32.1351 35.0625 31.6875 35.0625Z" fill="white"/>
<path d="M41.8125 35.0625H38.4375C37.9899 35.0625 37.5607 35.2403 37.2443 35.5568C36.9278 35.8732 36.75 36.3024 36.75 36.75C36.75 37.1976 36.9278 37.6268 37.2443 37.9432C37.5607 38.2597 37.9899 38.4375 38.4375 38.4375H41.8125C42.2601 38.4375 42.6893 38.2597 43.0057 37.9432C43.3222 37.6268 43.5 37.1976 43.5 36.75C43.5 36.3024 43.3222 35.8732 43.0057 35.5568C42.6893 35.2403 42.2601 35.0625 41.8125 35.0625Z" fill="white"/>
</svg>
