<svg xmlns="http://www.w3.org/2000/svg" viewBox="0 0 198.34 25.69"><defs><style>.cls-1{fill:#048060;}</style></defs><g id="Layer_2" data-name="Layer 2"><g id="Layer_1-2" data-name="Layer 1"><path class="cls-1" d="M33.22,20.89V3.37h4.65l4.4,10.46h.43L47.07,3.37h4.72V20.89H48.41V5.94l.43,0L44.11,17.31H40.63L35.88,6l.46,0v15Z"/><path class="cls-1" d="M61.68,21.34a7.07,7.07,0,0,1-2.94-.57,6.08,6.08,0,0,1-2.09-1.55,6.8,6.8,0,0,1-1.24-2.17A7.38,7.38,0,0,1,55,14.6v-.46a7.54,7.54,0,0,1,.42-2.5,6.45,6.45,0,0,1,1.24-2.16A6.08,6.08,0,0,1,58.71,8a6.77,6.77,0,0,1,2.83-.56,6.43,6.43,0,0,1,3.54.92,5.92,5.92,0,0,1,2.15,2.43A7.35,7.35,0,0,1,68,14v1.2H56.4v-2h9.46l-1,1A5.65,5.65,0,0,0,64.47,12a2.89,2.89,0,0,0-1.1-1.37,3.26,3.26,0,0,0-1.83-.48,3.36,3.36,0,0,0-1.87.5,3.12,3.12,0,0,0-1.17,1.46,5.9,5.9,0,0,0-.39,2.26,5.73,5.73,0,0,0,.38,2.18A3.22,3.22,0,0,0,59.67,18a3.48,3.48,0,0,0,2,.54,3.6,3.6,0,0,0,2-.49,2.2,2.2,0,0,0,1-1.21h3.07a5.36,5.36,0,0,1-3.18,3.91A7.06,7.06,0,0,1,61.68,21.34Z"/><path class="cls-1" d="M76.13,21.32a6.33,6.33,0,0,1-2.52-.5,5.89,5.89,0,0,1-2-1.42,6.66,6.66,0,0,1-1.3-2.12,7.53,7.53,0,0,1-.45-2.63v-.51a7.49,7.49,0,0,1,.44-2.61,6.59,6.59,0,0,1,1.25-2.14A5.66,5.66,0,0,1,73.5,8,6.15,6.15,0,0,1,76,7.45a5.35,5.35,0,0,1,2.7.66,4.7,4.7,0,0,1,1.86,2,7.59,7.59,0,0,1,.77,3.31l-1-1.15V3.37h3.33V20.89H81.07V15.34h.58a7.3,7.3,0,0,1-.82,3.33,4.86,4.86,0,0,1-2,2A5.68,5.68,0,0,1,76.13,21.32Zm.74-2.81a3.75,3.75,0,0,0,1.8-.44A3.34,3.34,0,0,0,80,16.77a3.9,3.9,0,0,0,.49-2v-1a3.31,3.31,0,0,0-1.82-3.13,3.83,3.83,0,0,0-1.78-.42,3.44,3.44,0,0,0-3.2,2,4.9,4.9,0,0,0-.47,2.19,4.66,4.66,0,0,0,.48,2.17,3.46,3.46,0,0,0,3.19,1.93Z"/><path class="cls-1" d="M96,21.34a9.36,9.36,0,0,1-4.11-.84A8.6,8.6,0,0,1,89,18.31a9.69,9.69,0,0,1-1.71-2.93,9.13,9.13,0,0,1-.56-3v-.52a9.49,9.49,0,0,1,.57-3.21,8.93,8.93,0,0,1,1.74-2.89A8.62,8.62,0,0,1,92,3.64a10.85,10.85,0,0,1,8.08,0,8.62,8.62,0,0,1,2.9,2.08,8.93,8.93,0,0,1,1.74,2.89,9.49,9.49,0,0,1,.57,3.21v.52a9.13,9.13,0,0,1-.56,3A9.69,9.69,0,0,1,103,18.31a8.6,8.6,0,0,1-2.88,2.19A9.3,9.3,0,0,1,96,21.34Zm0-3.16a5.79,5.79,0,0,0,2.41-.48,5.32,5.32,0,0,0,1.83-1.34,5.84,5.84,0,0,0,1.15-1.94,6.85,6.85,0,0,0,.4-2.32,7.23,7.23,0,0,0-.4-2.42,5.47,5.47,0,0,0-1.15-1.92A5.32,5.32,0,0,0,98.4,6.49,6,6,0,0,0,96,6a6.07,6.07,0,0,0-2.42.46,5.32,5.32,0,0,0-1.84,1.27,5.47,5.47,0,0,0-1.15,1.92,7.23,7.23,0,0,0-.4,2.42,6.85,6.85,0,0,0,.4,2.32,5.84,5.84,0,0,0,1.15,1.94,5.36,5.36,0,0,0,1.84,1.34A5.91,5.91,0,0,0,96,18.18Z"/><path class="cls-1" d="M108.27,25.69V7.86h2.64v5.61l-.41,0a7.64,7.64,0,0,1,.83-3.34,4.83,4.83,0,0,1,2-2A5.69,5.69,0,0,1,116,7.45a6.15,6.15,0,0,1,2.51.5,5.72,5.72,0,0,1,1.92,1.42,6.56,6.56,0,0,1,1.23,2.12,7.68,7.68,0,0,1,.43,2.61v.5a8,8,0,0,1-.42,2.63,6.24,6.24,0,0,1-1.22,2.13,5.59,5.59,0,0,1-1.93,1.44,6.27,6.27,0,0,1-5.2-.09,4.63,4.63,0,0,1-2-1.9,7.14,7.14,0,0,1-.84-3.32l1,1.61v8.59Zm6.91-7.18a3.27,3.27,0,0,0,1.88-.53,3.5,3.5,0,0,0,1.26-1.47,4.82,4.82,0,0,0,.46-2.15,4.71,4.71,0,0,0-.46-2.16,3.51,3.51,0,0,0-1.26-1.43,3.41,3.41,0,0,0-1.88-.51,3.81,3.81,0,0,0-1.81.43A3.43,3.43,0,0,0,112,12a3.81,3.81,0,0,0-.51,2v1a3.4,3.4,0,0,0,.52,1.92,3.74,3.74,0,0,0,1.37,1.22A3.8,3.8,0,0,0,115.18,18.51Z"/><path class="cls-1" d="M123.36,10.3V7.86h9.22V10.3Zm7.34,10.76a8.09,8.09,0,0,1-3-.47A3.26,3.26,0,0,1,126,19a6.64,6.64,0,0,1-.57-3l0-11.81h3.12l0,12a1.8,1.8,0,0,0,2,2h2v2.86Z"/><path class="cls-1" d="M134.19,10.35V7.86h5.16v2.49Zm3-4a1.88,1.88,0,0,1-1.45-.52,1.88,1.88,0,0,1-.47-1.31,1.81,1.81,0,0,1,.47-1.29,1.88,1.88,0,0,1,1.45-.51,1.83,1.83,0,0,1,1.44.51,1.8,1.8,0,0,1,.46,1.29,1.87,1.87,0,0,1-.46,1.31A1.83,1.83,0,0,1,137.23,6.3ZM136,20.89v-13h3.34v13Z"/><path class="cls-1" d="M143.19,20.89v-13h2.63v5.59h-.24a9.3,9.3,0,0,1,.51-3.3,4.08,4.08,0,0,1,1.5-2,4.31,4.31,0,0,1,2.48-.68h.15a4.36,4.36,0,0,1,2.5.68,4.06,4.06,0,0,1,1.49,2,9.57,9.57,0,0,1,.49,3.3h-.84a9.29,9.29,0,0,1,.52-3.3,4.21,4.21,0,0,1,1.51-2,4.35,4.35,0,0,1,2.49-.68h.14a4.42,4.42,0,0,1,2.52.68,4.25,4.25,0,0,1,1.53,2,9.3,9.3,0,0,1,.51,3.3v7.44h-3.34V13.14a2.9,2.9,0,0,0-.62-2,2.21,2.21,0,0,0-1.78-.73,2.39,2.39,0,0,0-1.84.75,2.86,2.86,0,0,0-.7,2v7.66h-3.34V13.14a2.9,2.9,0,0,0-.62-2,2.2,2.2,0,0,0-1.77-.73,2.4,2.4,0,0,0-1.85.75,2.86,2.86,0,0,0-.7,2v7.66Z"/><path class="cls-1" d="M165.46,10.35V7.86h5.16v2.49Zm3-4a1.89,1.89,0,0,1-1.46-.52,1.87,1.87,0,0,1-.46-1.31,1.8,1.8,0,0,1,.46-1.29,1.89,1.89,0,0,1,1.46-.51,1.86,1.86,0,0,1,1.44.51,1.84,1.84,0,0,1,.45,1.29A1.91,1.91,0,0,1,170,5.78,1.86,1.86,0,0,1,168.51,6.3Zm-1.23,14.59v-13h3.34v13Z"/><path class="cls-1" d="M173.62,20.89V18.25l6.43-7.73v.38l-.5-.67.4.19h-6.36V7.86h9.94V10.5l-6.43,7.72v-.36l.53.68-.41-.22h6.57v2.57Z"/><path class="cls-1" d="M192.07,21.34a7.07,7.07,0,0,1-2.94-.57,5.94,5.94,0,0,1-2.08-1.55,6.64,6.64,0,0,1-1.25-2.17,7.38,7.38,0,0,1-.42-2.45v-.46a7.54,7.54,0,0,1,.42-2.5,6.31,6.31,0,0,1,1.25-2.16,5.94,5.94,0,0,1,2-1.52,6.77,6.77,0,0,1,2.83-.56,6.43,6.43,0,0,1,3.54.92,5.92,5.92,0,0,1,2.15,2.43,7.35,7.35,0,0,1,.72,3.23v1.2H186.79v-2h9.46l-1,1a5.65,5.65,0,0,0-.36-2.13,2.94,2.94,0,0,0-1.09-1.37,3.31,3.31,0,0,0-1.84-.48,3.36,3.36,0,0,0-1.87.5,3.18,3.18,0,0,0-1.17,1.46,5.9,5.9,0,0,0-.39,2.26,5.93,5.93,0,0,0,.38,2.18A3.22,3.22,0,0,0,190.06,18a3.5,3.5,0,0,0,2,.54,3.66,3.66,0,0,0,2-.49,2.22,2.22,0,0,0,1-1.21h3.07a5.36,5.36,0,0,1-3.18,3.91A7,7,0,0,1,192.07,21.34Z"/><path class="cls-1" d="M.05,24H4.33V6.24L13,14.87l13-13V0H21.57L12.92,8.64,4.42.14H0Z"/><path class="cls-1" d="M6.53,11.52v6l6.4,6.4,8.61-8.6V24h4.31V4.88l-13,13Z"/></g></g></svg>