<svg width="27" height="24" viewBox="0 0 27 24" fill="none" xmlns="http://www.w3.org/2000/svg">
<path d="M19.4411 13.9999C20.6831 13.9999 21.6899 15.0068 21.6899 16.2488V16.8242C21.6899 17.7185 21.3703 18.5833 20.7888 19.2627C19.2195 21.0962 16.8323 22.0011 13.6869 22.0011C10.541 22.0011 8.15501 21.0959 6.58871 19.2617C6.00895 18.5828 5.69043 17.7193 5.69043 16.8265V16.2488C5.69043 15.0068 6.69729 13.9999 7.93931 13.9999H19.4411ZM19.4411 15.4999H7.93931C7.52571 15.4999 7.19043 15.8352 7.19043 16.2488V16.8265C7.19043 17.3622 7.38154 17.8802 7.7294 18.2876C8.98271 19.7553 10.9486 20.5011 13.6869 20.5011C16.4252 20.5011 18.3928 19.7553 19.6493 18.2873C19.9982 17.8797 20.1899 17.3608 20.1899 16.8242V16.2488C20.1899 15.8352 19.8547 15.4999 19.4411 15.4999ZM13.6869 2.00464C16.4483 2.00464 18.6869 4.24321 18.6869 7.00464C18.6869 9.76606 16.4483 12.0046 13.6869 12.0046C10.9255 12.0046 8.68689 9.76606 8.68689 7.00464C8.68689 4.24321 10.9255 2.00464 13.6869 2.00464ZM13.6869 3.50464C11.7539 3.50464 10.1869 5.07164 10.1869 7.00464C10.1869 8.93764 11.7539 10.5046 13.6869 10.5046C15.6199 10.5046 17.1869 8.93764 17.1869 7.00464C17.1869 5.07164 15.6199 3.50464 13.6869 3.50464Z" fill="#0097B2"/>
</svg>
